<?xml version="1.0" encoding="utf-8"?>
<svg xmlns="http://www.w3.org/2000/svg" xmlns:xlink="http://www.w3.org/1999/xlink" width="600" height="400" viewBox="0 0 2400 1600">
<defs>
  <clipPath id="clip520">
    <rect x="0" y="0" width="2400" height="1600"/>
  </clipPath>
</defs>
<path clip-path="url(#clip520)" d="
M0 1600 L2400 1600 L2400 0 L0 0  Z
  " fill="#ffffff" fill-rule="evenodd" fill-opacity="1"/>
<defs>
  <clipPath id="clip521">
    <rect x="480" y="0" width="1681" height="1600"/>
  </clipPath>
</defs>
<path clip-path="url(#clip520)" d="
M166.205 1486.45 L2352.76 1486.45 L2352.76 47.2441 L166.205 47.2441  Z
  " fill="#ffffff" fill-rule="evenodd" fill-opacity="1"/>
<defs>
  <clipPath id="clip522">
    <rect x="166" y="47" width="2188" height="1440"/>
  </clipPath>
</defs>
<polyline clip-path="url(#clip522)" style="stroke:#000000; stroke-width:2; stroke-opacity:0.1; fill:none" points="
  386.265,1486.45 386.265,47.2441 
  "/>
<polyline clip-path="url(#clip522)" style="stroke:#000000; stroke-width:2; stroke-opacity:0.1; fill:none" points="
  885.245,1486.45 885.245,47.2441 
  "/>
<polyline clip-path="url(#clip522)" style="stroke:#000000; stroke-width:2; stroke-opacity:0.1; fill:none" points="
  1384.23,1486.45 1384.23,47.2441 
  "/>
<polyline clip-path="url(#clip522)" style="stroke:#000000; stroke-width:2; stroke-opacity:0.1; fill:none" points="
  1883.21,1486.45 1883.21,47.2441 
  "/>
<polyline clip-path="url(#clip522)" style="stroke:#000000; stroke-width:2; stroke-opacity:0.1; fill:none" points="
  166.205,1445.72 2352.76,1445.72 
  "/>
<polyline clip-path="url(#clip522)" style="stroke:#000000; stroke-width:2; stroke-opacity:0.1; fill:none" points="
  166.205,1175.25 2352.76,1175.25 
  "/>
<polyline clip-path="url(#clip522)" style="stroke:#000000; stroke-width:2; stroke-opacity:0.1; fill:none" points="
  166.205,904.784 2352.76,904.784 
  "/>
<polyline clip-path="url(#clip522)" style="stroke:#000000; stroke-width:2; stroke-opacity:0.1; fill:none" points="
  166.205,634.318 2352.76,634.318 
  "/>
<polyline clip-path="url(#clip522)" style="stroke:#000000; stroke-width:2; stroke-opacity:0.1; fill:none" points="
  166.205,363.852 2352.76,363.852 
  "/>
<polyline clip-path="url(#clip522)" style="stroke:#000000; stroke-width:2; stroke-opacity:0.1; fill:none" points="
  166.205,93.3856 2352.76,93.3856 
  "/>
<polyline clip-path="url(#clip520)" style="stroke:#000000; stroke-width:4; stroke-opacity:1; fill:none" points="
  166.205,1486.45 2352.76,1486.45 
  "/>
<polyline clip-path="url(#clip520)" style="stroke:#000000; stroke-width:4; stroke-opacity:1; fill:none" points="
  166.205,1486.45 166.205,47.2441 
  "/>
<polyline clip-path="url(#clip520)" style="stroke:#000000; stroke-width:4; stroke-opacity:1; fill:none" points="
  386.265,1486.45 386.265,1469.18 
  "/>
<polyline clip-path="url(#clip520)" style="stroke:#000000; stroke-width:4; stroke-opacity:1; fill:none" points="
  885.245,1486.45 885.245,1469.18 
  "/>
<polyline clip-path="url(#clip520)" style="stroke:#000000; stroke-width:4; stroke-opacity:1; fill:none" points="
  1384.23,1486.45 1384.23,1469.18 
  "/>
<polyline clip-path="url(#clip520)" style="stroke:#000000; stroke-width:4; stroke-opacity:1; fill:none" points="
  1883.21,1486.45 1883.21,1469.18 
  "/>
<polyline clip-path="url(#clip520)" style="stroke:#000000; stroke-width:4; stroke-opacity:1; fill:none" points="
  166.205,1445.72 192.443,1445.72 
  "/>
<polyline clip-path="url(#clip520)" style="stroke:#000000; stroke-width:4; stroke-opacity:1; fill:none" points="
  166.205,1175.25 192.443,1175.25 
  "/>
<polyline clip-path="url(#clip520)" style="stroke:#000000; stroke-width:4; stroke-opacity:1; fill:none" points="
  166.205,904.784 192.443,904.784 
  "/>
<polyline clip-path="url(#clip520)" style="stroke:#000000; stroke-width:4; stroke-opacity:1; fill:none" points="
  166.205,634.318 192.443,634.318 
  "/>
<polyline clip-path="url(#clip520)" style="stroke:#000000; stroke-width:4; stroke-opacity:1; fill:none" points="
  166.205,363.852 192.443,363.852 
  "/>
<polyline clip-path="url(#clip520)" style="stroke:#000000; stroke-width:4; stroke-opacity:1; fill:none" points="
  166.205,93.3856 192.443,93.3856 
  "/>
<path clip-path="url(#clip520)" d="M 0 0 M386.265 1508.44 Q382.654 1508.44 380.825 1512 Q379.02 1515.55 379.02 1522.67 Q379.02 1529.78 380.825 1533.35 Q382.654 1536.89 386.265 1536.89 Q389.899 1536.89 391.705 1533.35 Q393.533 1529.78 393.533 1522.67 Q393.533 1515.55 391.705 1512 Q389.899 1508.44 386.265 1508.44 M386.265 1504.73 Q392.075 1504.73 395.131 1509.34 Q398.209 1513.92 398.209 1522.67 Q398.209 1531.4 395.131 1536.01 Q392.075 1540.59 386.265 1540.59 Q380.455 1540.59 377.376 1536.01 Q374.321 1531.4 374.321 1522.67 Q374.321 1513.92 377.376 1509.34 Q380.455 1504.73 386.265 1504.73 Z" fill="#000000" fill-rule="evenodd" fill-opacity="1" /><path clip-path="url(#clip520)" d="M 0 0 M879.898 1535.98 L896.217 1535.98 L896.217 1539.92 L874.273 1539.92 L874.273 1535.98 Q876.935 1533.23 881.518 1528.6 Q886.125 1523.95 887.305 1522.61 Q889.551 1520.08 890.43 1518.35 Q891.333 1516.59 891.333 1514.9 Q891.333 1512.14 889.389 1510.41 Q887.467 1508.67 884.366 1508.67 Q882.166 1508.67 879.713 1509.43 Q877.282 1510.2 874.504 1511.75 L874.504 1507.03 Q877.329 1505.89 879.782 1505.31 Q882.236 1504.73 884.273 1504.73 Q889.643 1504.73 892.838 1507.42 Q896.032 1510.11 896.032 1514.6 Q896.032 1516.73 895.222 1518.65 Q894.435 1520.54 892.328 1523.14 Q891.75 1523.81 888.648 1527.03 Q885.546 1530.22 879.898 1535.98 Z" fill="#000000" fill-rule="evenodd" fill-opacity="1" /><path clip-path="url(#clip520)" d="M 0 0 M1387.23 1509.43 L1375.43 1527.88 L1387.23 1527.88 L1387.23 1509.43 M1386.01 1505.36 L1391.89 1505.36 L1391.89 1527.88 L1396.82 1527.88 L1396.82 1531.77 L1391.89 1531.77 L1391.89 1539.92 L1387.23 1539.92 L1387.23 1531.77 L1371.63 1531.77 L1371.63 1527.26 L1386.01 1505.36 Z" fill="#000000" fill-rule="evenodd" fill-opacity="1" /><path clip-path="url(#clip520)" d="M 0 0 M1883.61 1520.78 Q1880.46 1520.78 1878.61 1522.93 Q1876.78 1525.08 1876.78 1528.83 Q1876.78 1532.56 1878.61 1534.73 Q1880.46 1536.89 1883.61 1536.89 Q1886.76 1536.89 1888.59 1534.73 Q1890.44 1532.56 1890.44 1528.83 Q1890.44 1525.08 1888.59 1522.93 Q1886.76 1520.78 1883.61 1520.78 M1892.89 1506.12 L1892.89 1510.38 Q1891.13 1509.55 1889.33 1509.11 Q1887.55 1508.67 1885.79 1508.67 Q1881.16 1508.67 1878.7 1511.8 Q1876.27 1514.92 1875.93 1521.24 Q1877.29 1519.23 1879.35 1518.16 Q1881.41 1517.07 1883.89 1517.07 Q1889.1 1517.07 1892.11 1520.24 Q1895.14 1523.39 1895.14 1528.83 Q1895.14 1534.16 1891.99 1537.37 Q1888.84 1540.59 1883.61 1540.59 Q1877.62 1540.59 1874.44 1536.01 Q1871.27 1531.4 1871.27 1522.67 Q1871.27 1514.48 1875.16 1509.62 Q1879.05 1504.73 1885.6 1504.73 Q1887.36 1504.73 1889.14 1505.08 Q1890.95 1505.43 1892.89 1506.12 Z" fill="#000000" fill-rule="evenodd" fill-opacity="1" /><path clip-path="url(#clip520)" d="M 0 0 M130.26 1431.51 Q126.649 1431.51 124.82 1435.08 Q123.015 1438.62 123.015 1445.75 Q123.015 1452.86 124.82 1456.42 Q126.649 1459.96 130.26 1459.96 Q133.895 1459.96 135.7 1456.42 Q137.529 1452.86 137.529 1445.75 Q137.529 1438.62 135.7 1435.08 Q133.895 1431.51 130.26 1431.51 M130.26 1427.81 Q136.07 1427.81 139.126 1432.42 Q142.205 1437 142.205 1445.75 Q142.205 1454.48 139.126 1459.08 Q136.07 1463.67 130.26 1463.67 Q124.45 1463.67 121.371 1459.08 Q118.316 1454.48 118.316 1445.75 Q118.316 1437 121.371 1432.42 Q124.45 1427.81 130.26 1427.81 Z" fill="#000000" fill-rule="evenodd" fill-opacity="1" /><path clip-path="url(#clip520)" d="M 0 0 M68.2699 1188.59 L75.9087 1188.59 L75.9087 1162.23 L67.5986 1163.9 L67.5986 1159.64 L75.8624 1157.97 L80.5383 1157.97 L80.5383 1188.59 L88.1772 1188.59 L88.1772 1192.53 L68.2699 1192.53 L68.2699 1188.59 Z" fill="#000000" fill-rule="evenodd" fill-opacity="1" /><path clip-path="url(#clip520)" d="M 0 0 M103.247 1161.05 Q99.6354 1161.05 97.8068 1164.61 Q96.0012 1168.15 96.0012 1175.28 Q96.0012 1182.39 97.8068 1185.96 Q99.6354 1189.5 103.247 1189.5 Q106.881 1189.5 108.686 1185.96 Q110.515 1182.39 110.515 1175.28 Q110.515 1168.15 108.686 1164.61 Q106.881 1161.05 103.247 1161.05 M103.247 1157.34 Q109.057 1157.34 112.112 1161.95 Q115.191 1166.53 115.191 1175.28 Q115.191 1184.01 112.112 1188.62 Q109.057 1193.2 103.247 1193.2 Q97.4364 1193.2 94.3577 1188.62 Q91.3022 1184.01 91.3022 1175.28 Q91.3022 1166.53 94.3577 1161.95 Q97.4364 1157.34 103.247 1157.34 Z" fill="#000000" fill-rule="evenodd" fill-opacity="1" /><path clip-path="url(#clip520)" d="M 0 0 M130.26 1161.05 Q126.649 1161.05 124.82 1164.61 Q123.015 1168.15 123.015 1175.28 Q123.015 1182.39 124.82 1185.96 Q126.649 1189.5 130.26 1189.5 Q133.895 1189.5 135.7 1185.96 Q137.529 1182.39 137.529 1175.28 Q137.529 1168.15 135.7 1164.61 Q133.895 1161.05 130.26 1161.05 M130.26 1157.34 Q136.07 1157.34 139.126 1161.95 Q142.205 1166.53 142.205 1175.28 Q142.205 1184.01 139.126 1188.62 Q136.07 1193.2 130.26 1193.2 Q124.45 1193.2 121.371 1188.62 Q118.316 1184.01 118.316 1175.28 Q118.316 1166.53 121.371 1161.95 Q124.45 1157.34 130.26 1157.34 Z" fill="#000000" fill-rule="evenodd" fill-opacity="1" /><path clip-path="url(#clip520)" d="M 0 0 M71.8578 918.128 L88.1772 918.128 L88.1772 922.064 L66.2328 922.064 L66.2328 918.128 Q68.8949 915.374 73.4782 910.744 Q78.0846 906.092 79.2652 904.749 Q81.5105 902.226 82.3902 900.49 Q83.2929 898.73 83.2929 897.041 Q83.2929 894.286 81.3485 892.55 Q79.4272 890.814 76.3254 890.814 Q74.1263 890.814 71.6726 891.578 Q69.2421 892.342 66.4643 893.893 L66.4643 889.17 Q69.2884 888.036 71.7421 887.457 Q74.1958 886.879 76.2328 886.879 Q81.6031 886.879 84.7976 889.564 Q87.992 892.249 87.992 896.74 Q87.992 898.869 87.1818 900.791 Q86.3948 902.689 84.2883 905.281 Q83.7096 905.953 80.6078 909.17 Q77.5059 912.365 71.8578 918.128 Z" fill="#000000" fill-rule="evenodd" fill-opacity="1" /><path clip-path="url(#clip520)" d="M 0 0 M103.247 890.582 Q99.6354 890.582 97.8068 894.147 Q96.0012 897.689 96.0012 904.818 Q96.0012 911.925 97.8068 915.49 Q99.6354 919.031 103.247 919.031 Q106.881 919.031 108.686 915.49 Q110.515 911.925 110.515 904.818 Q110.515 897.689 108.686 894.147 Q106.881 890.582 103.247 890.582 M103.247 886.879 Q109.057 886.879 112.112 891.485 Q115.191 896.068 115.191 904.818 Q115.191 913.545 112.112 918.152 Q109.057 922.735 103.247 922.735 Q97.4364 922.735 94.3577 918.152 Q91.3022 913.545 91.3022 904.818 Q91.3022 896.068 94.3577 891.485 Q97.4364 886.879 103.247 886.879 Z" fill="#000000" fill-rule="evenodd" fill-opacity="1" /><path clip-path="url(#clip520)" d="M 0 0 M130.26 890.582 Q126.649 890.582 124.82 894.147 Q123.015 897.689 123.015 904.818 Q123.015 911.925 124.82 915.49 Q126.649 919.031 130.26 919.031 Q133.895 919.031 135.7 915.49 Q137.529 911.925 137.529 904.818 Q137.529 897.689 135.7 894.147 Q133.895 890.582 130.26 890.582 M130.26 886.879 Q136.07 886.879 139.126 891.485 Q142.205 896.068 142.205 904.818 Q142.205 913.545 139.126 918.152 Q136.07 922.735 130.26 922.735 Q124.45 922.735 121.371 918.152 Q118.316 913.545 118.316 904.818 Q118.316 896.068 121.371 891.485 Q124.45 886.879 130.26 886.879 Z" fill="#000000" fill-rule="evenodd" fill-opacity="1" /><path clip-path="url(#clip520)" d="M 0 0 M81.0476 632.963 Q84.404 633.681 86.279 635.95 Q88.1772 638.218 88.1772 641.551 Q88.1772 646.667 84.6587 649.468 Q81.1402 652.269 74.6587 652.269 Q72.4828 652.269 70.168 651.829 Q67.8764 651.412 65.4227 650.556 L65.4227 646.042 Q67.3671 647.176 69.6819 647.755 Q71.9967 648.334 74.5198 648.334 Q78.918 648.334 81.2096 646.598 Q83.5244 644.862 83.5244 641.551 Q83.5244 638.496 81.3717 636.783 Q79.242 635.047 75.4226 635.047 L71.3949 635.047 L71.3949 631.204 L75.6078 631.204 Q79.0569 631.204 80.8855 629.838 Q82.7142 628.45 82.7142 625.857 Q82.7142 623.195 80.8161 621.783 Q78.9411 620.348 75.4226 620.348 Q73.5013 620.348 71.3023 620.764 Q69.1032 621.181 66.4643 622.061 L66.4643 617.894 Q69.1264 617.153 71.4412 616.783 Q73.7791 616.413 75.8393 616.413 Q81.1633 616.413 84.2652 618.843 Q87.367 621.251 87.367 625.371 Q87.367 628.241 85.7235 630.232 Q84.08 632.2 81.0476 632.963 Z" fill="#000000" fill-rule="evenodd" fill-opacity="1" /><path clip-path="url(#clip520)" d="M 0 0 M103.247 620.116 Q99.6354 620.116 97.8068 623.681 Q96.0012 627.223 96.0012 634.352 Q96.0012 641.459 97.8068 645.024 Q99.6354 648.565 103.247 648.565 Q106.881 648.565 108.686 645.024 Q110.515 641.459 110.515 634.352 Q110.515 627.223 108.686 623.681 Q106.881 620.116 103.247 620.116 M103.247 616.413 Q109.057 616.413 112.112 621.019 Q115.191 625.602 115.191 634.352 Q115.191 643.079 112.112 647.686 Q109.057 652.269 103.247 652.269 Q97.4364 652.269 94.3577 647.686 Q91.3022 643.079 91.3022 634.352 Q91.3022 625.602 94.3577 621.019 Q97.4364 616.413 103.247 616.413 Z" fill="#000000" fill-rule="evenodd" fill-opacity="1" /><path clip-path="url(#clip520)" d="M 0 0 M130.26 620.116 Q126.649 620.116 124.82 623.681 Q123.015 627.223 123.015 634.352 Q123.015 641.459 124.82 645.024 Q126.649 648.565 130.26 648.565 Q133.895 648.565 135.7 645.024 Q137.529 641.459 137.529 634.352 Q137.529 627.223 135.7 623.681 Q133.895 620.116 130.26 620.116 M130.26 616.413 Q136.07 616.413 139.126 621.019 Q142.205 625.602 142.205 634.352 Q142.205 643.079 139.126 647.686 Q136.07 652.269 130.26 652.269 Q124.45 652.269 121.371 647.686 Q118.316 643.079 118.316 634.352 Q118.316 625.602 121.371 621.019 Q124.45 616.413 130.26 616.413 Z" fill="#000000" fill-rule="evenodd" fill-opacity="1" /><path clip-path="url(#clip520)" d="M 0 0 M78.5939 350.646 L66.7884 369.095 L78.5939 369.095 L78.5939 350.646 M77.367 346.572 L83.2466 346.572 L83.2466 369.095 L88.1772 369.095 L88.1772 372.984 L83.2466 372.984 L83.2466 381.132 L78.5939 381.132 L78.5939 372.984 L62.9921 372.984 L62.9921 368.47 L77.367 346.572 Z" fill="#000000" fill-rule="evenodd" fill-opacity="1" /><path clip-path="url(#clip520)" d="M 0 0 M103.247 349.65 Q99.6354 349.65 97.8068 353.215 Q96.0012 356.757 96.0012 363.886 Q96.0012 370.993 97.8068 374.558 Q99.6354 378.099 103.247 378.099 Q106.881 378.099 108.686 374.558 Q110.515 370.993 110.515 363.886 Q110.515 356.757 108.686 353.215 Q106.881 349.65 103.247 349.65 M103.247 345.947 Q109.057 345.947 112.112 350.553 Q115.191 355.136 115.191 363.886 Q115.191 372.613 112.112 377.22 Q109.057 381.803 103.247 381.803 Q97.4364 381.803 94.3577 377.22 Q91.3022 372.613 91.3022 363.886 Q91.3022 355.136 94.3577 350.553 Q97.4364 345.947 103.247 345.947 Z" fill="#000000" fill-rule="evenodd" fill-opacity="1" /><path clip-path="url(#clip520)" d="M 0 0 M130.26 349.65 Q126.649 349.65 124.82 353.215 Q123.015 356.757 123.015 363.886 Q123.015 370.993 124.82 374.558 Q126.649 378.099 130.26 378.099 Q133.895 378.099 135.7 374.558 Q137.529 370.993 137.529 363.886 Q137.529 356.757 135.7 353.215 Q133.895 349.65 130.26 349.65 M130.26 345.947 Q136.07 345.947 139.126 350.553 Q142.205 355.136 142.205 363.886 Q142.205 372.613 139.126 377.22 Q136.07 381.803 130.26 381.803 Q124.45 381.803 121.371 377.22 Q118.316 372.613 118.316 363.886 Q118.316 355.136 121.371 350.553 Q124.45 345.947 130.26 345.947 Z" fill="#000000" fill-rule="evenodd" fill-opacity="1" /><path clip-path="url(#clip520)" d="M 0 0 M67.2745 76.1056 L85.6309 76.1056 L85.6309 80.0408 L71.5569 80.0408 L71.5569 88.5129 Q72.5754 88.1657 73.5939 88.0037 Q74.6124 87.8185 75.6309 87.8185 Q81.418 87.8185 84.7976 90.9898 Q88.1772 94.1611 88.1772 99.5777 Q88.1772 105.156 84.705 108.258 Q81.2328 111.337 74.9134 111.337 Q72.7374 111.337 70.4689 110.967 Q68.2236 110.596 65.8162 109.855 L65.8162 105.156 Q67.8995 106.291 70.1217 106.846 Q72.3439 107.402 74.8208 107.402 Q78.8254 107.402 81.1633 105.295 Q83.5013 103.189 83.5013 99.5777 Q83.5013 95.9666 81.1633 93.8601 Q78.8254 91.7537 74.8208 91.7537 Q72.9458 91.7537 71.0708 92.1703 Q69.2189 92.587 67.2745 93.4666 L67.2745 76.1056 Z" fill="#000000" fill-rule="evenodd" fill-opacity="1" /><path clip-path="url(#clip520)" d="M 0 0 M103.247 79.1843 Q99.6354 79.1843 97.8068 82.7491 Q96.0012 86.2907 96.0012 93.4203 Q96.0012 100.527 97.8068 104.092 Q99.6354 107.633 103.247 107.633 Q106.881 107.633 108.686 104.092 Q110.515 100.527 110.515 93.4203 Q110.515 86.2907 108.686 82.7491 Q106.881 79.1843 103.247 79.1843 M103.247 75.4806 Q109.057 75.4806 112.112 80.0871 Q115.191 84.6704 115.191 93.4203 Q115.191 102.147 112.112 106.754 Q109.057 111.337 103.247 111.337 Q97.4364 111.337 94.3577 106.754 Q91.3022 102.147 91.3022 93.4203 Q91.3022 84.6704 94.3577 80.0871 Q97.4364 75.4806 103.247 75.4806 Z" fill="#000000" fill-rule="evenodd" fill-opacity="1" /><path clip-path="url(#clip520)" d="M 0 0 M130.26 79.1843 Q126.649 79.1843 124.82 82.7491 Q123.015 86.2907 123.015 93.4203 Q123.015 100.527 124.82 104.092 Q126.649 107.633 130.26 107.633 Q133.895 107.633 135.7 104.092 Q137.529 100.527 137.529 93.4203 Q137.529 86.2907 135.7 82.7491 Q133.895 79.1843 130.26 79.1843 M130.26 75.4806 Q136.07 75.4806 139.126 80.0871 Q142.205 84.6704 142.205 93.4203 Q142.205 102.147 139.126 106.754 Q136.07 111.337 130.26 111.337 Q124.45 111.337 121.371 106.754 Q118.316 102.147 118.316 93.4203 Q118.316 84.6704 121.371 80.0871 Q124.45 75.4806 130.26 75.4806 Z" fill="#000000" fill-rule="evenodd" fill-opacity="1" /><path clip-path="url(#clip522)" d="
M286.469 98.7949 L286.469 1445.72 L486.061 1445.72 L486.061 98.7949 L286.469 98.7949 L286.469 98.7949  Z
  " fill="#009af9" fill-rule="evenodd" fill-opacity="1"/>
<polyline clip-path="url(#clip522)" style="stroke:#000000; stroke-width:4; stroke-opacity:1; fill:none" points="
  286.469,98.7949 286.469,1445.72 486.061,1445.72 486.061,98.7949 286.469,98.7949 
  "/>
<path clip-path="url(#clip522)" d="
M535.959 1445.72 L535.959 1445.72 L735.551 1445.72 L735.551 1445.72 L535.959 1445.72 L535.959 1445.72  Z
  " fill="#009af9" fill-rule="evenodd" fill-opacity="1"/>
<polyline clip-path="url(#clip522)" style="stroke:#000000; stroke-width:4; stroke-opacity:1; fill:none" points="
  535.959,1445.72 535.959,1445.72 735.551,1445.72 535.959,1445.72 
  "/>
<path clip-path="url(#clip522)" d="
M785.449 1445.72 L785.449 1445.72 L985.041 1445.72 L985.041 1445.72 L785.449 1445.72 L785.449 1445.72  Z
  " fill="#009af9" fill-rule="evenodd" fill-opacity="1"/>
<polyline clip-path="url(#clip522)" style="stroke:#000000; stroke-width:4; stroke-opacity:1; fill:none" points="
  785.449,1445.72 785.449,1445.72 985.041,1445.72 785.449,1445.72 
  "/>
<path clip-path="url(#clip522)" d="
M1034.94 1445.72 L1034.94 1445.72 L1234.53 1445.72 L1234.53 1445.72 L1034.94 1445.72 L1034.94 1445.72  Z
  " fill="#009af9" fill-rule="evenodd" fill-opacity="1"/>
<polyline clip-path="url(#clip522)" style="stroke:#000000; stroke-width:4; stroke-opacity:1; fill:none" points="
  1034.94,1445.72 1034.94,1445.72 1234.53,1445.72 1034.94,1445.72 
  "/>
<path clip-path="url(#clip522)" d="
M1284.43 1445.72 L1284.43 1445.72 L1484.02 1445.72 L1484.02 1445.72 L1284.43 1445.72 L1284.43 1445.72  Z
  " fill="#009af9" fill-rule="evenodd" fill-opacity="1"/>
<polyline clip-path="url(#clip522)" style="stroke:#000000; stroke-width:4; stroke-opacity:1; fill:none" points="
  1284.43,1445.72 1284.43,1445.72 1484.02,1445.72 1284.43,1445.72 
  "/>
<path clip-path="url(#clip522)" d="
M1533.92 1445.72 L1533.92 1445.72 L1733.51 1445.72 L1733.51 1445.72 L1533.92 1445.72 L1533.92 1445.72  Z
  " fill="#009af9" fill-rule="evenodd" fill-opacity="1"/>
<polyline clip-path="url(#clip522)" style="stroke:#000000; stroke-width:4; stroke-opacity:1; fill:none" points="
  1533.92,1445.72 1533.92,1445.72 1733.51,1445.72 1533.92,1445.72 
  "/>
<path clip-path="url(#clip522)" d="
M1783.41 1445.72 L1783.41 1445.72 L1983 1445.72 L1983 1445.72 L1783.41 1445.72 L1783.41 1445.72  Z
  " fill="#009af9" fill-rule="evenodd" fill-opacity="1"/>
<polyline clip-path="url(#clip522)" style="stroke:#000000; stroke-width:4; stroke-opacity:1; fill:none" points="
  1783.41,1445.72 1783.41,1445.72 1983,1445.72 1783.41,1445.72 
  "/>
<path clip-path="url(#clip522)" d="
M2032.9 87.9763 L2032.9 1445.72 L2232.49 1445.72 L2232.49 87.9763 L2032.9 87.9763 L2032.9 87.9763  Z
  " fill="#009af9" fill-rule="evenodd" fill-opacity="1"/>
<polyline clip-path="url(#clip522)" style="stroke:#000000; stroke-width:4; stroke-opacity:1; fill:none" points="
  2032.9,87.9763 2032.9,1445.72 2232.49,1445.72 2232.49,87.9763 2032.9,87.9763 
  "/>
</svg>
