<?xml version="1.0" encoding="utf-8"?>
<svg xmlns="http://www.w3.org/2000/svg" xmlns:xlink="http://www.w3.org/1999/xlink" width="600" height="400" viewBox="0 0 2400 1600">
<defs>
  <clipPath id="clip640">
    <rect x="0" y="0" width="2400" height="1600"/>
  </clipPath>
</defs>
<path clip-path="url(#clip640)" d="
M0 1600 L2400 1600 L2400 0 L0 0  Z
  " fill="#ffffff" fill-rule="evenodd" fill-opacity="1"/>
<defs>
  <clipPath id="clip641">
    <rect x="480" y="0" width="1681" height="1600"/>
  </clipPath>
</defs>
<path clip-path="url(#clip640)" d="
M166.205 1486.45 L2352.76 1486.45 L2352.76 47.2441 L166.205 47.2441  Z
  " fill="#ffffff" fill-rule="evenodd" fill-opacity="1"/>
<defs>
  <clipPath id="clip642">
    <rect x="166" y="47" width="2188" height="1440"/>
  </clipPath>
</defs>
<polyline clip-path="url(#clip642)" style="stroke:#000000; stroke-width:2; stroke-opacity:0.1; fill:none" points="
  335.735,1486.45 335.735,47.2441 
  "/>
<polyline clip-path="url(#clip642)" style="stroke:#000000; stroke-width:2; stroke-opacity:0.1; fill:none" points="
  951.565,1486.45 951.565,47.2441 
  "/>
<polyline clip-path="url(#clip642)" style="stroke:#000000; stroke-width:2; stroke-opacity:0.1; fill:none" points="
  1567.4,1486.45 1567.4,47.2441 
  "/>
<polyline clip-path="url(#clip642)" style="stroke:#000000; stroke-width:2; stroke-opacity:0.1; fill:none" points="
  2183.23,1486.45 2183.23,47.2441 
  "/>
<polyline clip-path="url(#clip642)" style="stroke:#000000; stroke-width:2; stroke-opacity:0.1; fill:none" points="
  166.205,1445.72 2352.76,1445.72 
  "/>
<polyline clip-path="url(#clip642)" style="stroke:#000000; stroke-width:2; stroke-opacity:0.1; fill:none" points="
  166.205,1176.32 2352.76,1176.32 
  "/>
<polyline clip-path="url(#clip642)" style="stroke:#000000; stroke-width:2; stroke-opacity:0.1; fill:none" points="
  166.205,906.93 2352.76,906.93 
  "/>
<polyline clip-path="url(#clip642)" style="stroke:#000000; stroke-width:2; stroke-opacity:0.1; fill:none" points="
  166.205,637.537 2352.76,637.537 
  "/>
<polyline clip-path="url(#clip642)" style="stroke:#000000; stroke-width:2; stroke-opacity:0.1; fill:none" points="
  166.205,368.145 2352.76,368.145 
  "/>
<polyline clip-path="url(#clip642)" style="stroke:#000000; stroke-width:2; stroke-opacity:0.1; fill:none" points="
  166.205,98.752 2352.76,98.752 
  "/>
<polyline clip-path="url(#clip640)" style="stroke:#000000; stroke-width:4; stroke-opacity:1; fill:none" points="
  166.205,1486.45 2352.76,1486.45 
  "/>
<polyline clip-path="url(#clip640)" style="stroke:#000000; stroke-width:4; stroke-opacity:1; fill:none" points="
  166.205,1486.45 166.205,47.2441 
  "/>
<polyline clip-path="url(#clip640)" style="stroke:#000000; stroke-width:4; stroke-opacity:1; fill:none" points="
  335.735,1486.45 335.735,1469.18 
  "/>
<polyline clip-path="url(#clip640)" style="stroke:#000000; stroke-width:4; stroke-opacity:1; fill:none" points="
  951.565,1486.45 951.565,1469.18 
  "/>
<polyline clip-path="url(#clip640)" style="stroke:#000000; stroke-width:4; stroke-opacity:1; fill:none" points="
  1567.4,1486.45 1567.4,1469.18 
  "/>
<polyline clip-path="url(#clip640)" style="stroke:#000000; stroke-width:4; stroke-opacity:1; fill:none" points="
  2183.23,1486.45 2183.23,1469.18 
  "/>
<polyline clip-path="url(#clip640)" style="stroke:#000000; stroke-width:4; stroke-opacity:1; fill:none" points="
  166.205,1445.72 192.443,1445.72 
  "/>
<polyline clip-path="url(#clip640)" style="stroke:#000000; stroke-width:4; stroke-opacity:1; fill:none" points="
  166.205,1176.32 192.443,1176.32 
  "/>
<polyline clip-path="url(#clip640)" style="stroke:#000000; stroke-width:4; stroke-opacity:1; fill:none" points="
  166.205,906.93 192.443,906.93 
  "/>
<polyline clip-path="url(#clip640)" style="stroke:#000000; stroke-width:4; stroke-opacity:1; fill:none" points="
  166.205,637.537 192.443,637.537 
  "/>
<polyline clip-path="url(#clip640)" style="stroke:#000000; stroke-width:4; stroke-opacity:1; fill:none" points="
  166.205,368.145 192.443,368.145 
  "/>
<polyline clip-path="url(#clip640)" style="stroke:#000000; stroke-width:4; stroke-opacity:1; fill:none" points="
  166.205,98.752 192.443,98.752 
  "/>
<path clip-path="url(#clip640)" d="M 0 0 M335.735 1508.44 Q332.124 1508.44 330.295 1512 Q328.49 1515.55 328.49 1522.67 Q328.49 1529.78 330.295 1533.35 Q332.124 1536.89 335.735 1536.89 Q339.37 1536.89 341.175 1533.35 Q343.004 1529.78 343.004 1522.67 Q343.004 1515.55 341.175 1512 Q339.37 1508.44 335.735 1508.44 M335.735 1504.73 Q341.545 1504.73 344.601 1509.34 Q347.68 1513.92 347.68 1522.67 Q347.68 1531.4 344.601 1536.01 Q341.545 1540.59 335.735 1540.59 Q329.925 1540.59 326.846 1536.01 Q323.791 1531.4 323.791 1522.67 Q323.791 1513.92 326.846 1509.34 Q329.925 1504.73 335.735 1504.73 Z" fill="#000000" fill-rule="evenodd" fill-opacity="1" /><path clip-path="url(#clip640)" d="M 0 0 M941.843 1505.36 L960.199 1505.36 L960.199 1509.3 L946.125 1509.3 L946.125 1517.77 Q947.144 1517.42 948.163 1517.26 Q949.181 1517.07 950.2 1517.07 Q955.987 1517.07 959.366 1520.24 Q962.746 1523.42 962.746 1528.83 Q962.746 1534.41 959.274 1537.51 Q955.801 1540.59 949.482 1540.59 Q947.306 1540.59 945.038 1540.22 Q942.792 1539.85 940.385 1539.11 L940.385 1534.41 Q942.468 1535.54 944.69 1536.1 Q946.913 1536.66 949.389 1536.66 Q953.394 1536.66 955.732 1534.55 Q958.07 1532.44 958.07 1528.83 Q958.07 1525.22 955.732 1523.11 Q953.394 1521.01 949.389 1521.01 Q947.514 1521.01 945.639 1521.42 Q943.788 1521.84 941.843 1522.72 L941.843 1505.36 Z" fill="#000000" fill-rule="evenodd" fill-opacity="1" /><path clip-path="url(#clip640)" d="M 0 0 M1544.27 1535.98 L1551.91 1535.98 L1551.91 1509.62 L1543.6 1511.29 L1543.6 1507.03 L1551.86 1505.36 L1556.54 1505.36 L1556.54 1535.98 L1564.18 1535.98 L1564.18 1539.92 L1544.27 1539.92 L1544.27 1535.98 Z" fill="#000000" fill-rule="evenodd" fill-opacity="1" /><path clip-path="url(#clip640)" d="M 0 0 M1579.25 1508.44 Q1575.64 1508.44 1573.81 1512 Q1572 1515.55 1572 1522.67 Q1572 1529.78 1573.81 1533.35 Q1575.64 1536.89 1579.25 1536.89 Q1582.88 1536.89 1584.69 1533.35 Q1586.52 1529.78 1586.52 1522.67 Q1586.52 1515.55 1584.69 1512 Q1582.88 1508.44 1579.25 1508.44 M1579.25 1504.73 Q1585.06 1504.73 1588.11 1509.34 Q1591.19 1513.92 1591.19 1522.67 Q1591.19 1531.4 1588.11 1536.01 Q1585.06 1540.59 1579.25 1540.59 Q1573.44 1540.59 1570.36 1536.01 Q1567.3 1531.4 1567.3 1522.67 Q1567.3 1513.92 1570.36 1509.34 Q1573.44 1504.73 1579.25 1504.73 Z" fill="#000000" fill-rule="evenodd" fill-opacity="1" /><path clip-path="url(#clip640)" d="M 0 0 M2160.6 1535.98 L2168.24 1535.98 L2168.24 1509.62 L2159.93 1511.29 L2159.93 1507.03 L2168.19 1505.36 L2172.87 1505.36 L2172.87 1535.98 L2180.51 1535.98 L2180.51 1539.92 L2160.6 1539.92 L2160.6 1535.98 Z" fill="#000000" fill-rule="evenodd" fill-opacity="1" /><path clip-path="url(#clip640)" d="M 0 0 M2185.62 1505.36 L2203.98 1505.36 L2203.98 1509.3 L2189.9 1509.3 L2189.9 1517.77 Q2190.92 1517.42 2191.94 1517.26 Q2192.96 1517.07 2193.98 1517.07 Q2199.76 1517.07 2203.14 1520.24 Q2206.52 1523.42 2206.52 1528.83 Q2206.52 1534.41 2203.05 1537.51 Q2199.58 1540.59 2193.26 1540.59 Q2191.08 1540.59 2188.82 1540.22 Q2186.57 1539.85 2184.16 1539.11 L2184.16 1534.41 Q2186.25 1535.54 2188.47 1536.1 Q2190.69 1536.66 2193.17 1536.66 Q2197.17 1536.66 2199.51 1534.55 Q2201.85 1532.44 2201.85 1528.83 Q2201.85 1525.22 2199.51 1523.11 Q2197.17 1521.01 2193.17 1521.01 Q2191.29 1521.01 2189.42 1521.42 Q2187.57 1521.84 2185.62 1522.72 L2185.62 1505.36 Z" fill="#000000" fill-rule="evenodd" fill-opacity="1" /><path clip-path="url(#clip640)" d="M 0 0 M130.26 1431.51 Q126.649 1431.51 124.82 1435.08 Q123.015 1438.62 123.015 1445.75 Q123.015 1452.86 124.82 1456.42 Q126.649 1459.96 130.26 1459.96 Q133.895 1459.96 135.7 1456.42 Q137.529 1452.86 137.529 1445.75 Q137.529 1438.62 135.7 1435.08 Q133.895 1431.51 130.26 1431.51 M130.26 1427.81 Q136.07 1427.81 139.126 1432.42 Q142.205 1437 142.205 1445.75 Q142.205 1454.48 139.126 1459.08 Q136.07 1463.67 130.26 1463.67 Q124.45 1463.67 121.371 1459.08 Q118.316 1454.48 118.316 1445.75 Q118.316 1437 121.371 1432.42 Q124.45 1427.81 130.26 1427.81 Z" fill="#000000" fill-rule="evenodd" fill-opacity="1" /><path clip-path="url(#clip640)" d="M 0 0 M68.2699 1189.67 L75.9087 1189.67 L75.9087 1163.3 L67.5986 1164.97 L67.5986 1160.71 L75.8624 1159.04 L80.5383 1159.04 L80.5383 1189.67 L88.1772 1189.67 L88.1772 1193.6 L68.2699 1193.6 L68.2699 1189.67 Z" fill="#000000" fill-rule="evenodd" fill-opacity="1" /><path clip-path="url(#clip640)" d="M 0 0 M103.247 1162.12 Q99.6354 1162.12 97.8068 1165.69 Q96.0012 1169.23 96.0012 1176.36 Q96.0012 1183.46 97.8068 1187.03 Q99.6354 1190.57 103.247 1190.57 Q106.881 1190.57 108.686 1187.03 Q110.515 1183.46 110.515 1176.36 Q110.515 1169.23 108.686 1165.69 Q106.881 1162.12 103.247 1162.12 M103.247 1158.42 Q109.057 1158.42 112.112 1163.02 Q115.191 1167.61 115.191 1176.36 Q115.191 1185.08 112.112 1189.69 Q109.057 1194.27 103.247 1194.27 Q97.4364 1194.27 94.3577 1189.69 Q91.3022 1185.08 91.3022 1176.36 Q91.3022 1167.61 94.3577 1163.02 Q97.4364 1158.42 103.247 1158.42 Z" fill="#000000" fill-rule="evenodd" fill-opacity="1" /><path clip-path="url(#clip640)" d="M 0 0 M130.26 1162.12 Q126.649 1162.12 124.82 1165.69 Q123.015 1169.23 123.015 1176.36 Q123.015 1183.46 124.82 1187.03 Q126.649 1190.57 130.26 1190.57 Q133.895 1190.57 135.7 1187.03 Q137.529 1183.46 137.529 1176.36 Q137.529 1169.23 135.7 1165.69 Q133.895 1162.12 130.26 1162.12 M130.26 1158.42 Q136.07 1158.42 139.126 1163.02 Q142.205 1167.61 142.205 1176.36 Q142.205 1185.08 139.126 1189.69 Q136.07 1194.27 130.26 1194.27 Q124.45 1194.27 121.371 1189.69 Q118.316 1185.08 118.316 1176.36 Q118.316 1167.61 121.371 1163.02 Q124.45 1158.42 130.26 1158.42 Z" fill="#000000" fill-rule="evenodd" fill-opacity="1" /><path clip-path="url(#clip640)" d="M 0 0 M71.8578 920.275 L88.1772 920.275 L88.1772 924.21 L66.2328 924.21 L66.2328 920.275 Q68.8949 917.52 73.4782 912.891 Q78.0846 908.238 79.2652 906.895 Q81.5105 904.372 82.3902 902.636 Q83.2929 900.877 83.2929 899.187 Q83.2929 896.433 81.3485 894.696 Q79.4272 892.96 76.3254 892.96 Q74.1263 892.96 71.6726 893.724 Q69.2421 894.488 66.4643 896.039 L66.4643 891.317 Q69.2884 890.183 71.7421 889.604 Q74.1958 889.025 76.2328 889.025 Q81.6031 889.025 84.7976 891.71 Q87.992 894.396 87.992 898.886 Q87.992 901.016 87.1818 902.937 Q86.3948 904.835 84.2883 907.428 Q83.7096 908.099 80.6078 911.317 Q77.5059 914.511 71.8578 920.275 Z" fill="#000000" fill-rule="evenodd" fill-opacity="1" /><path clip-path="url(#clip640)" d="M 0 0 M103.247 892.729 Q99.6354 892.729 97.8068 896.294 Q96.0012 899.835 96.0012 906.965 Q96.0012 914.071 97.8068 917.636 Q99.6354 921.178 103.247 921.178 Q106.881 921.178 108.686 917.636 Q110.515 914.071 110.515 906.965 Q110.515 899.835 108.686 896.294 Q106.881 892.729 103.247 892.729 M103.247 889.025 Q109.057 889.025 112.112 893.632 Q115.191 898.215 115.191 906.965 Q115.191 915.692 112.112 920.298 Q109.057 924.882 103.247 924.882 Q97.4364 924.882 94.3577 920.298 Q91.3022 915.692 91.3022 906.965 Q91.3022 898.215 94.3577 893.632 Q97.4364 889.025 103.247 889.025 Z" fill="#000000" fill-rule="evenodd" fill-opacity="1" /><path clip-path="url(#clip640)" d="M 0 0 M130.26 892.729 Q126.649 892.729 124.82 896.294 Q123.015 899.835 123.015 906.965 Q123.015 914.071 124.82 917.636 Q126.649 921.178 130.26 921.178 Q133.895 921.178 135.7 917.636 Q137.529 914.071 137.529 906.965 Q137.529 899.835 135.7 896.294 Q133.895 892.729 130.26 892.729 M130.26 889.025 Q136.07 889.025 139.126 893.632 Q142.205 898.215 142.205 906.965 Q142.205 915.692 139.126 920.298 Q136.07 924.882 130.26 924.882 Q124.45 924.882 121.371 920.298 Q118.316 915.692 118.316 906.965 Q118.316 898.215 121.371 893.632 Q124.45 889.025 130.26 889.025 Z" fill="#000000" fill-rule="evenodd" fill-opacity="1" /><path clip-path="url(#clip640)" d="M 0 0 M81.0476 636.183 Q84.404 636.901 86.279 639.169 Q88.1772 641.438 88.1772 644.771 Q88.1772 649.887 84.6587 652.688 Q81.1402 655.489 74.6587 655.489 Q72.4828 655.489 70.168 655.049 Q67.8764 654.632 65.4227 653.776 L65.4227 649.262 Q67.3671 650.396 69.6819 650.975 Q71.9967 651.554 74.5198 651.554 Q78.918 651.554 81.2096 649.817 Q83.5244 648.081 83.5244 644.771 Q83.5244 641.716 81.3717 640.003 Q79.242 638.267 75.4226 638.267 L71.3949 638.267 L71.3949 634.424 L75.6078 634.424 Q79.0569 634.424 80.8855 633.058 Q82.7142 631.669 82.7142 629.077 Q82.7142 626.415 80.8161 625.003 Q78.9411 623.568 75.4226 623.568 Q73.5013 623.568 71.3023 623.984 Q69.1032 624.401 66.4643 625.281 L66.4643 621.114 Q69.1264 620.373 71.4412 620.003 Q73.7791 619.632 75.8393 619.632 Q81.1633 619.632 84.2652 622.063 Q87.367 624.47 87.367 628.591 Q87.367 631.461 85.7235 633.452 Q84.08 635.419 81.0476 636.183 Z" fill="#000000" fill-rule="evenodd" fill-opacity="1" /><path clip-path="url(#clip640)" d="M 0 0 M103.247 623.336 Q99.6354 623.336 97.8068 626.901 Q96.0012 630.443 96.0012 637.572 Q96.0012 644.679 97.8068 648.243 Q99.6354 651.785 103.247 651.785 Q106.881 651.785 108.686 648.243 Q110.515 644.679 110.515 637.572 Q110.515 630.443 108.686 626.901 Q106.881 623.336 103.247 623.336 M103.247 619.632 Q109.057 619.632 112.112 624.239 Q115.191 628.822 115.191 637.572 Q115.191 646.299 112.112 650.905 Q109.057 655.489 103.247 655.489 Q97.4364 655.489 94.3577 650.905 Q91.3022 646.299 91.3022 637.572 Q91.3022 628.822 94.3577 624.239 Q97.4364 619.632 103.247 619.632 Z" fill="#000000" fill-rule="evenodd" fill-opacity="1" /><path clip-path="url(#clip640)" d="M 0 0 M130.26 623.336 Q126.649 623.336 124.82 626.901 Q123.015 630.443 123.015 637.572 Q123.015 644.679 124.82 648.243 Q126.649 651.785 130.26 651.785 Q133.895 651.785 135.7 648.243 Q137.529 644.679 137.529 637.572 Q137.529 630.443 135.7 626.901 Q133.895 623.336 130.26 623.336 M130.26 619.632 Q136.07 619.632 139.126 624.239 Q142.205 628.822 142.205 637.572 Q142.205 646.299 139.126 650.905 Q136.07 655.489 130.26 655.489 Q124.45 655.489 121.371 650.905 Q118.316 646.299 118.316 637.572 Q118.316 628.822 121.371 624.239 Q124.45 619.632 130.26 619.632 Z" fill="#000000" fill-rule="evenodd" fill-opacity="1" /><path clip-path="url(#clip640)" d="M 0 0 M78.5939 354.939 L66.7884 373.388 L78.5939 373.388 L78.5939 354.939 M77.367 350.865 L83.2466 350.865 L83.2466 373.388 L88.1772 373.388 L88.1772 377.277 L83.2466 377.277 L83.2466 385.425 L78.5939 385.425 L78.5939 377.277 L62.9921 377.277 L62.9921 372.763 L77.367 350.865 Z" fill="#000000" fill-rule="evenodd" fill-opacity="1" /><path clip-path="url(#clip640)" d="M 0 0 M103.247 353.943 Q99.6354 353.943 97.8068 357.508 Q96.0012 361.05 96.0012 368.179 Q96.0012 375.286 97.8068 378.851 Q99.6354 382.392 103.247 382.392 Q106.881 382.392 108.686 378.851 Q110.515 375.286 110.515 368.179 Q110.515 361.05 108.686 357.508 Q106.881 353.943 103.247 353.943 M103.247 350.24 Q109.057 350.24 112.112 354.846 Q115.191 359.429 115.191 368.179 Q115.191 376.906 112.112 381.513 Q109.057 386.096 103.247 386.096 Q97.4364 386.096 94.3577 381.513 Q91.3022 376.906 91.3022 368.179 Q91.3022 359.429 94.3577 354.846 Q97.4364 350.24 103.247 350.24 Z" fill="#000000" fill-rule="evenodd" fill-opacity="1" /><path clip-path="url(#clip640)" d="M 0 0 M130.26 353.943 Q126.649 353.943 124.82 357.508 Q123.015 361.05 123.015 368.179 Q123.015 375.286 124.82 378.851 Q126.649 382.392 130.26 382.392 Q133.895 382.392 135.7 378.851 Q137.529 375.286 137.529 368.179 Q137.529 361.05 135.7 357.508 Q133.895 353.943 130.26 353.943 M130.26 350.24 Q136.07 350.24 139.126 354.846 Q142.205 359.429 142.205 368.179 Q142.205 376.906 139.126 381.513 Q136.07 386.096 130.26 386.096 Q124.45 386.096 121.371 381.513 Q118.316 376.906 118.316 368.179 Q118.316 359.429 121.371 354.846 Q124.45 350.24 130.26 350.24 Z" fill="#000000" fill-rule="evenodd" fill-opacity="1" /><path clip-path="url(#clip640)" d="M 0 0 M67.2745 81.472 L85.6309 81.472 L85.6309 85.4072 L71.5569 85.4072 L71.5569 93.8793 Q72.5754 93.5321 73.5939 93.3701 Q74.6124 93.1849 75.6309 93.1849 Q81.418 93.1849 84.7976 96.3562 Q88.1772 99.5274 88.1772 104.944 Q88.1772 110.523 84.705 113.625 Q81.2328 116.703 74.9134 116.703 Q72.7374 116.703 70.4689 116.333 Q68.2236 115.963 65.8162 115.222 L65.8162 110.523 Q67.8995 111.657 70.1217 112.213 Q72.3439 112.768 74.8208 112.768 Q78.8254 112.768 81.1633 110.662 Q83.5013 108.555 83.5013 104.944 Q83.5013 101.333 81.1633 99.2265 Q78.8254 97.1201 74.8208 97.1201 Q72.9458 97.1201 71.0708 97.5367 Q69.2189 97.9534 67.2745 98.833 L67.2745 81.472 Z" fill="#000000" fill-rule="evenodd" fill-opacity="1" /><path clip-path="url(#clip640)" d="M 0 0 M103.247 84.5507 Q99.6354 84.5507 97.8068 88.1155 Q96.0012 91.6571 96.0012 98.7867 Q96.0012 105.893 97.8068 109.458 Q99.6354 113 103.247 113 Q106.881 113 108.686 109.458 Q110.515 105.893 110.515 98.7867 Q110.515 91.6571 108.686 88.1155 Q106.881 84.5507 103.247 84.5507 M103.247 80.847 Q109.057 80.847 112.112 85.4534 Q115.191 90.0368 115.191 98.7867 Q115.191 107.514 112.112 112.12 Q109.057 116.703 103.247 116.703 Q97.4364 116.703 94.3577 112.12 Q91.3022 107.514 91.3022 98.7867 Q91.3022 90.0368 94.3577 85.4534 Q97.4364 80.847 103.247 80.847 Z" fill="#000000" fill-rule="evenodd" fill-opacity="1" /><path clip-path="url(#clip640)" d="M 0 0 M130.26 84.5507 Q126.649 84.5507 124.82 88.1155 Q123.015 91.6571 123.015 98.7867 Q123.015 105.893 124.82 109.458 Q126.649 113 130.26 113 Q133.895 113 135.7 109.458 Q137.529 105.893 137.529 98.7867 Q137.529 91.6571 135.7 88.1155 Q133.895 84.5507 130.26 84.5507 M130.26 80.847 Q136.07 80.847 139.126 85.4534 Q142.205 90.0368 142.205 98.7867 Q142.205 107.514 139.126 112.12 Q136.07 116.703 130.26 116.703 Q124.45 116.703 121.371 112.12 Q118.316 107.514 118.316 98.7867 Q118.316 90.0368 121.371 85.4534 Q124.45 80.847 130.26 80.847 Z" fill="#000000" fill-rule="evenodd" fill-opacity="1" /><path clip-path="url(#clip642)" d="
M286.469 87.9763 L286.469 1445.72 L385.002 1445.72 L385.002 87.9763 L286.469 87.9763 L286.469 87.9763  Z
  " fill="#009af9" fill-rule="evenodd" fill-opacity="1"/>
<polyline clip-path="url(#clip642)" style="stroke:#000000; stroke-width:4; stroke-opacity:1; fill:none" points="
  286.469,87.9763 286.469,1445.72 385.002,1445.72 385.002,87.9763 286.469,87.9763 
  "/>
<path clip-path="url(#clip642)" d="
M409.635 1445.72 L409.635 1445.72 L508.168 1445.72 L508.168 1445.72 L409.635 1445.72 L409.635 1445.72  Z
  " fill="#009af9" fill-rule="evenodd" fill-opacity="1"/>
<polyline clip-path="url(#clip642)" style="stroke:#000000; stroke-width:4; stroke-opacity:1; fill:none" points="
  409.635,1445.72 409.635,1445.72 508.168,1445.72 409.635,1445.72 
  "/>
<path clip-path="url(#clip642)" d="
M532.801 1445.72 L532.801 1445.72 L631.334 1445.72 L631.334 1445.72 L532.801 1445.72 L532.801 1445.72  Z
  " fill="#009af9" fill-rule="evenodd" fill-opacity="1"/>
<polyline clip-path="url(#clip642)" style="stroke:#000000; stroke-width:4; stroke-opacity:1; fill:none" points="
  532.801,1445.72 532.801,1445.72 631.334,1445.72 532.801,1445.72 
  "/>
<path clip-path="url(#clip642)" d="
M655.967 1445.72 L655.967 1445.72 L754.5 1445.72 L754.5 1445.72 L655.967 1445.72 L655.967 1445.72  Z
  " fill="#009af9" fill-rule="evenodd" fill-opacity="1"/>
<polyline clip-path="url(#clip642)" style="stroke:#000000; stroke-width:4; stroke-opacity:1; fill:none" points="
  655.967,1445.72 655.967,1445.72 754.5,1445.72 655.967,1445.72 
  "/>
<path clip-path="url(#clip642)" d="
M779.133 1445.72 L779.133 1445.72 L877.666 1445.72 L877.666 1445.72 L779.133 1445.72 L779.133 1445.72  Z
  " fill="#009af9" fill-rule="evenodd" fill-opacity="1"/>
<polyline clip-path="url(#clip642)" style="stroke:#000000; stroke-width:4; stroke-opacity:1; fill:none" points="
  779.133,1445.72 779.133,1445.72 877.666,1445.72 779.133,1445.72 
  "/>
<path clip-path="url(#clip642)" d="
M902.299 1445.72 L902.299 1445.72 L1000.83 1445.72 L1000.83 1445.72 L902.299 1445.72 L902.299 1445.72  Z
  " fill="#009af9" fill-rule="evenodd" fill-opacity="1"/>
<polyline clip-path="url(#clip642)" style="stroke:#000000; stroke-width:4; stroke-opacity:1; fill:none" points="
  902.299,1445.72 902.299,1445.72 1000.83,1445.72 902.299,1445.72 
  "/>
<path clip-path="url(#clip642)" d="
M1025.46 1445.72 L1025.46 1445.72 L1124 1445.72 L1124 1445.72 L1025.46 1445.72 L1025.46 1445.72  Z
  " fill="#009af9" fill-rule="evenodd" fill-opacity="1"/>
<polyline clip-path="url(#clip642)" style="stroke:#000000; stroke-width:4; stroke-opacity:1; fill:none" points="
  1025.46,1445.72 1025.46,1445.72 1124,1445.72 1025.46,1445.72 
  "/>
<path clip-path="url(#clip642)" d="
M1148.63 1445.72 L1148.63 1445.72 L1247.16 1445.72 L1247.16 1445.72 L1148.63 1445.72 L1148.63 1445.72  Z
  " fill="#009af9" fill-rule="evenodd" fill-opacity="1"/>
<polyline clip-path="url(#clip642)" style="stroke:#000000; stroke-width:4; stroke-opacity:1; fill:none" points="
  1148.63,1445.72 1148.63,1445.72 1247.16,1445.72 1148.63,1445.72 
  "/>
<path clip-path="url(#clip642)" d="
M1271.8 1445.72 L1271.8 1445.72 L1370.33 1445.72 L1370.33 1445.72 L1271.8 1445.72 L1271.8 1445.72  Z
  " fill="#009af9" fill-rule="evenodd" fill-opacity="1"/>
<polyline clip-path="url(#clip642)" style="stroke:#000000; stroke-width:4; stroke-opacity:1; fill:none" points="
  1271.8,1445.72 1271.8,1445.72 1370.33,1445.72 1271.8,1445.72 
  "/>
<path clip-path="url(#clip642)" d="
M1394.96 1445.72 L1394.96 1445.72 L1493.5 1445.72 L1493.5 1445.72 L1394.96 1445.72 L1394.96 1445.72  Z
  " fill="#009af9" fill-rule="evenodd" fill-opacity="1"/>
<polyline clip-path="url(#clip642)" style="stroke:#000000; stroke-width:4; stroke-opacity:1; fill:none" points="
  1394.96,1445.72 1394.96,1445.72 1493.5,1445.72 1394.96,1445.72 
  "/>
<path clip-path="url(#clip642)" d="
M1518.13 1445.72 L1518.13 1445.72 L1616.66 1445.72 L1616.66 1445.72 L1518.13 1445.72 L1518.13 1445.72  Z
  " fill="#009af9" fill-rule="evenodd" fill-opacity="1"/>
<polyline clip-path="url(#clip642)" style="stroke:#000000; stroke-width:4; stroke-opacity:1; fill:none" points="
  1518.13,1445.72 1518.13,1445.72 1616.66,1445.72 1518.13,1445.72 
  "/>
<path clip-path="url(#clip642)" d="
M1641.29 1445.72 L1641.29 1445.72 L1739.83 1445.72 L1739.83 1445.72 L1641.29 1445.72 L1641.29 1445.72  Z
  " fill="#009af9" fill-rule="evenodd" fill-opacity="1"/>
<polyline clip-path="url(#clip642)" style="stroke:#000000; stroke-width:4; stroke-opacity:1; fill:none" points="
  1641.29,1445.72 1641.29,1445.72 1739.83,1445.72 1641.29,1445.72 
  "/>
<path clip-path="url(#clip642)" d="
M1764.46 1445.72 L1764.46 1445.72 L1862.99 1445.72 L1862.99 1445.72 L1764.46 1445.72 L1764.46 1445.72  Z
  " fill="#009af9" fill-rule="evenodd" fill-opacity="1"/>
<polyline clip-path="url(#clip642)" style="stroke:#000000; stroke-width:4; stroke-opacity:1; fill:none" points="
  1764.46,1445.72 1764.46,1445.72 1862.99,1445.72 1764.46,1445.72 
  "/>
<path clip-path="url(#clip642)" d="
M1887.63 1445.72 L1887.63 1445.72 L1986.16 1445.72 L1986.16 1445.72 L1887.63 1445.72 L1887.63 1445.72  Z
  " fill="#009af9" fill-rule="evenodd" fill-opacity="1"/>
<polyline clip-path="url(#clip642)" style="stroke:#000000; stroke-width:4; stroke-opacity:1; fill:none" points="
  1887.63,1445.72 1887.63,1445.72 1986.16,1445.72 1887.63,1445.72 
  "/>
<path clip-path="url(#clip642)" d="
M2010.79 1445.72 L2010.79 1445.72 L2109.33 1445.72 L2109.33 1445.72 L2010.79 1445.72 L2010.79 1445.72  Z
  " fill="#009af9" fill-rule="evenodd" fill-opacity="1"/>
<polyline clip-path="url(#clip642)" style="stroke:#000000; stroke-width:4; stroke-opacity:1; fill:none" points="
  2010.79,1445.72 2010.79,1445.72 2109.33,1445.72 2010.79,1445.72 
  "/>
<path clip-path="url(#clip642)" d="
M2133.96 109.528 L2133.96 1445.72 L2232.49 1445.72 L2232.49 109.528 L2133.96 109.528 L2133.96 109.528  Z
  " fill="#009af9" fill-rule="evenodd" fill-opacity="1"/>
<polyline clip-path="url(#clip642)" style="stroke:#000000; stroke-width:4; stroke-opacity:1; fill:none" points="
  2133.96,109.528 2133.96,1445.72 2232.49,1445.72 2232.49,109.528 2133.96,109.528 
  "/>
</svg>
