<?xml version="1.0" encoding="utf-8"?>
<svg xmlns="http://www.w3.org/2000/svg" xmlns:xlink="http://www.w3.org/1999/xlink" width="600" height="400" viewBox="0 0 2400 1600">
<defs>
  <clipPath id="clip040">
    <rect x="0" y="0" width="2400" height="1600"/>
  </clipPath>
</defs>
<path clip-path="url(#clip040)" d="
M0 1600 L2400 1600 L2400 0 L0 0  Z
  " fill="#ffffff" fill-rule="evenodd" fill-opacity="1"/>
<defs>
  <clipPath id="clip041">
    <rect x="480" y="0" width="1681" height="1600"/>
  </clipPath>
</defs>
<path clip-path="url(#clip040)" d="
M166.205 1486.45 L2352.76 1486.45 L2352.76 47.2441 L166.205 47.2441  Z
  " fill="#ffffff" fill-rule="evenodd" fill-opacity="1"/>
<defs>
  <clipPath id="clip042">
    <rect x="166" y="47" width="2188" height="1440"/>
  </clipPath>
</defs>
<polyline clip-path="url(#clip042)" style="stroke:#000000; stroke-width:2; stroke-opacity:0.1; fill:none" points="
  491.313,1486.45 491.313,47.2441 
  "/>
<polyline clip-path="url(#clip042)" style="stroke:#000000; stroke-width:2; stroke-opacity:0.1; fill:none" points="
  1003.42,1486.45 1003.42,47.2441 
  "/>
<polyline clip-path="url(#clip042)" style="stroke:#000000; stroke-width:2; stroke-opacity:0.1; fill:none" points="
  1515.54,1486.45 1515.54,47.2441 
  "/>
<polyline clip-path="url(#clip042)" style="stroke:#000000; stroke-width:2; stroke-opacity:0.1; fill:none" points="
  2027.65,1486.45 2027.65,47.2441 
  "/>
<polyline clip-path="url(#clip042)" style="stroke:#000000; stroke-width:2; stroke-opacity:0.1; fill:none" points="
  166.205,1445.72 2352.76,1445.72 
  "/>
<polyline clip-path="url(#clip042)" style="stroke:#000000; stroke-width:2; stroke-opacity:0.1; fill:none" points="
  166.205,1174.71 2352.76,1174.71 
  "/>
<polyline clip-path="url(#clip042)" style="stroke:#000000; stroke-width:2; stroke-opacity:0.1; fill:none" points="
  166.205,903.704 2352.76,903.704 
  "/>
<polyline clip-path="url(#clip042)" style="stroke:#000000; stroke-width:2; stroke-opacity:0.1; fill:none" points="
  166.205,632.698 2352.76,632.698 
  "/>
<polyline clip-path="url(#clip042)" style="stroke:#000000; stroke-width:2; stroke-opacity:0.1; fill:none" points="
  166.205,361.692 2352.76,361.692 
  "/>
<polyline clip-path="url(#clip042)" style="stroke:#000000; stroke-width:2; stroke-opacity:0.1; fill:none" points="
  166.205,90.6863 2352.76,90.6863 
  "/>
<polyline clip-path="url(#clip040)" style="stroke:#000000; stroke-width:4; stroke-opacity:1; fill:none" points="
  166.205,1486.45 2352.76,1486.45 
  "/>
<polyline clip-path="url(#clip040)" style="stroke:#000000; stroke-width:4; stroke-opacity:1; fill:none" points="
  166.205,1486.45 166.205,47.2441 
  "/>
<polyline clip-path="url(#clip040)" style="stroke:#000000; stroke-width:4; stroke-opacity:1; fill:none" points="
  491.313,1486.45 491.313,1469.18 
  "/>
<polyline clip-path="url(#clip040)" style="stroke:#000000; stroke-width:4; stroke-opacity:1; fill:none" points="
  1003.42,1486.45 1003.42,1469.18 
  "/>
<polyline clip-path="url(#clip040)" style="stroke:#000000; stroke-width:4; stroke-opacity:1; fill:none" points="
  1515.54,1486.45 1515.54,1469.18 
  "/>
<polyline clip-path="url(#clip040)" style="stroke:#000000; stroke-width:4; stroke-opacity:1; fill:none" points="
  2027.65,1486.45 2027.65,1469.18 
  "/>
<polyline clip-path="url(#clip040)" style="stroke:#000000; stroke-width:4; stroke-opacity:1; fill:none" points="
  166.205,1445.72 192.443,1445.72 
  "/>
<polyline clip-path="url(#clip040)" style="stroke:#000000; stroke-width:4; stroke-opacity:1; fill:none" points="
  166.205,1174.71 192.443,1174.71 
  "/>
<polyline clip-path="url(#clip040)" style="stroke:#000000; stroke-width:4; stroke-opacity:1; fill:none" points="
  166.205,903.704 192.443,903.704 
  "/>
<polyline clip-path="url(#clip040)" style="stroke:#000000; stroke-width:4; stroke-opacity:1; fill:none" points="
  166.205,632.698 192.443,632.698 
  "/>
<polyline clip-path="url(#clip040)" style="stroke:#000000; stroke-width:4; stroke-opacity:1; fill:none" points="
  166.205,361.692 192.443,361.692 
  "/>
<polyline clip-path="url(#clip040)" style="stroke:#000000; stroke-width:4; stroke-opacity:1; fill:none" points="
  166.205,90.6863 192.443,90.6863 
  "/>
<path clip-path="url(#clip040)" d="M 0 0 M491.313 1508.44 Q487.702 1508.44 485.874 1512 Q484.068 1515.55 484.068 1522.67 Q484.068 1529.78 485.874 1533.35 Q487.702 1536.89 491.313 1536.89 Q494.948 1536.89 496.753 1533.35 Q498.582 1529.78 498.582 1522.67 Q498.582 1515.55 496.753 1512 Q494.948 1508.44 491.313 1508.44 M491.313 1504.73 Q497.124 1504.73 500.179 1509.34 Q503.258 1513.92 503.258 1522.67 Q503.258 1531.4 500.179 1536.01 Q497.124 1540.59 491.313 1540.59 Q485.503 1540.59 482.425 1536.01 Q479.369 1531.4 479.369 1522.67 Q479.369 1513.92 482.425 1509.34 Q485.503 1504.73 491.313 1504.73 Z" fill="#000000" fill-rule="evenodd" fill-opacity="1" /><path clip-path="url(#clip040)" d="M 0 0 M993.807 1535.98 L1001.45 1535.98 L1001.45 1509.62 L993.135 1511.29 L993.135 1507.03 L1001.4 1505.36 L1006.08 1505.36 L1006.08 1535.98 L1013.71 1535.98 L1013.71 1539.92 L993.807 1539.92 L993.807 1535.98 Z" fill="#000000" fill-rule="evenodd" fill-opacity="1" /><path clip-path="url(#clip040)" d="M 0 0 M1510.19 1535.98 L1526.51 1535.98 L1526.51 1539.92 L1504.56 1539.92 L1504.56 1535.98 Q1507.23 1533.23 1511.81 1528.6 Q1516.42 1523.95 1517.6 1522.61 Q1519.84 1520.08 1520.72 1518.35 Q1521.62 1516.59 1521.62 1514.9 Q1521.62 1512.14 1519.68 1510.41 Q1517.76 1508.67 1514.66 1508.67 Q1512.46 1508.67 1510 1509.43 Q1507.57 1510.2 1504.8 1511.75 L1504.8 1507.03 Q1507.62 1505.89 1510.07 1505.31 Q1512.53 1504.73 1514.56 1504.73 Q1519.93 1504.73 1523.13 1507.42 Q1526.32 1510.11 1526.32 1514.6 Q1526.32 1516.73 1525.51 1518.65 Q1524.73 1520.54 1522.62 1523.14 Q1522.04 1523.81 1518.94 1527.03 Q1515.84 1530.22 1510.19 1535.98 Z" fill="#000000" fill-rule="evenodd" fill-opacity="1" /><path clip-path="url(#clip040)" d="M 0 0 M2031.89 1521.29 Q2035.25 1522 2037.13 1524.27 Q2039.02 1526.54 2039.02 1529.87 Q2039.02 1534.99 2035.51 1537.79 Q2031.99 1540.59 2025.51 1540.59 Q2023.33 1540.59 2021.02 1540.15 Q2018.72 1539.73 2016.27 1538.88 L2016.27 1534.36 Q2018.21 1535.5 2020.53 1536.08 Q2022.84 1536.66 2025.37 1536.66 Q2029.77 1536.66 2032.06 1534.92 Q2034.37 1533.18 2034.37 1529.87 Q2034.37 1526.82 2032.22 1525.11 Q2030.09 1523.37 2026.27 1523.37 L2022.24 1523.37 L2022.24 1519.53 L2026.46 1519.53 Q2029.9 1519.53 2031.73 1518.16 Q2033.56 1516.77 2033.56 1514.18 Q2033.56 1511.52 2031.66 1510.11 Q2029.79 1508.67 2026.27 1508.67 Q2024.35 1508.67 2022.15 1509.09 Q2019.95 1509.5 2017.31 1510.38 L2017.31 1506.22 Q2019.97 1505.48 2022.29 1505.11 Q2024.63 1504.73 2026.69 1504.73 Q2032.01 1504.73 2035.11 1507.17 Q2038.21 1509.57 2038.21 1513.69 Q2038.21 1516.56 2036.57 1518.55 Q2034.93 1520.52 2031.89 1521.29 Z" fill="#000000" fill-rule="evenodd" fill-opacity="1" /><path clip-path="url(#clip040)" d="M 0 0 M130.26 1431.51 Q126.649 1431.51 124.82 1435.08 Q123.015 1438.62 123.015 1445.75 Q123.015 1452.86 124.82 1456.42 Q126.649 1459.96 130.26 1459.96 Q133.895 1459.96 135.7 1456.42 Q137.529 1452.86 137.529 1445.75 Q137.529 1438.62 135.7 1435.08 Q133.895 1431.51 130.26 1431.51 M130.26 1427.81 Q136.07 1427.81 139.126 1432.42 Q142.205 1437 142.205 1445.75 Q142.205 1454.48 139.126 1459.08 Q136.07 1463.67 130.26 1463.67 Q124.45 1463.67 121.371 1459.08 Q118.316 1454.48 118.316 1445.75 Q118.316 1437 121.371 1432.42 Q124.45 1427.81 130.26 1427.81 Z" fill="#000000" fill-rule="evenodd" fill-opacity="1" /><path clip-path="url(#clip040)" d="M 0 0 M68.2699 1188.05 L75.9087 1188.05 L75.9087 1161.69 L67.5986 1163.36 L67.5986 1159.1 L75.8624 1157.43 L80.5383 1157.43 L80.5383 1188.05 L88.1772 1188.05 L88.1772 1191.99 L68.2699 1191.99 L68.2699 1188.05 Z" fill="#000000" fill-rule="evenodd" fill-opacity="1" /><path clip-path="url(#clip040)" d="M 0 0 M103.247 1160.51 Q99.6354 1160.51 97.8068 1164.07 Q96.0012 1167.61 96.0012 1174.74 Q96.0012 1181.85 97.8068 1185.42 Q99.6354 1188.96 103.247 1188.96 Q106.881 1188.96 108.686 1185.42 Q110.515 1181.85 110.515 1174.74 Q110.515 1167.61 108.686 1164.07 Q106.881 1160.51 103.247 1160.51 M103.247 1156.8 Q109.057 1156.8 112.112 1161.41 Q115.191 1165.99 115.191 1174.74 Q115.191 1183.47 112.112 1188.08 Q109.057 1192.66 103.247 1192.66 Q97.4364 1192.66 94.3577 1188.08 Q91.3022 1183.47 91.3022 1174.74 Q91.3022 1165.99 94.3577 1161.41 Q97.4364 1156.8 103.247 1156.8 Z" fill="#000000" fill-rule="evenodd" fill-opacity="1" /><path clip-path="url(#clip040)" d="M 0 0 M130.26 1160.51 Q126.649 1160.51 124.82 1164.07 Q123.015 1167.61 123.015 1174.74 Q123.015 1181.85 124.82 1185.42 Q126.649 1188.96 130.26 1188.96 Q133.895 1188.96 135.7 1185.42 Q137.529 1181.85 137.529 1174.74 Q137.529 1167.61 135.7 1164.07 Q133.895 1160.51 130.26 1160.51 M130.26 1156.8 Q136.07 1156.8 139.126 1161.41 Q142.205 1165.99 142.205 1174.74 Q142.205 1183.47 139.126 1188.08 Q136.07 1192.66 130.26 1192.66 Q124.45 1192.66 121.371 1188.08 Q118.316 1183.47 118.316 1174.74 Q118.316 1165.99 121.371 1161.41 Q124.45 1156.8 130.26 1156.8 Z" fill="#000000" fill-rule="evenodd" fill-opacity="1" /><path clip-path="url(#clip040)" d="M 0 0 M71.8578 917.049 L88.1772 917.049 L88.1772 920.984 L66.2328 920.984 L66.2328 917.049 Q68.8949 914.294 73.4782 909.665 Q78.0846 905.012 79.2652 903.669 Q81.5105 901.146 82.3902 899.41 Q83.2929 897.651 83.2929 895.961 Q83.2929 893.206 81.3485 891.47 Q79.4272 889.734 76.3254 889.734 Q74.1263 889.734 71.6726 890.498 Q69.2421 891.262 66.4643 892.813 L66.4643 888.091 Q69.2884 886.956 71.7421 886.378 Q74.1958 885.799 76.2328 885.799 Q81.6031 885.799 84.7976 888.484 Q87.992 891.169 87.992 895.66 Q87.992 897.79 87.1818 899.711 Q86.3948 901.609 84.2883 904.202 Q83.7096 904.873 80.6078 908.09 Q77.5059 911.285 71.8578 917.049 Z" fill="#000000" fill-rule="evenodd" fill-opacity="1" /><path clip-path="url(#clip040)" d="M 0 0 M103.247 889.503 Q99.6354 889.503 97.8068 893.067 Q96.0012 896.609 96.0012 903.739 Q96.0012 910.845 97.8068 914.41 Q99.6354 917.952 103.247 917.952 Q106.881 917.952 108.686 914.41 Q110.515 910.845 110.515 903.739 Q110.515 896.609 108.686 893.067 Q106.881 889.503 103.247 889.503 M103.247 885.799 Q109.057 885.799 112.112 890.405 Q115.191 894.989 115.191 903.739 Q115.191 912.465 112.112 917.072 Q109.057 921.655 103.247 921.655 Q97.4364 921.655 94.3577 917.072 Q91.3022 912.465 91.3022 903.739 Q91.3022 894.989 94.3577 890.405 Q97.4364 885.799 103.247 885.799 Z" fill="#000000" fill-rule="evenodd" fill-opacity="1" /><path clip-path="url(#clip040)" d="M 0 0 M130.26 889.503 Q126.649 889.503 124.82 893.067 Q123.015 896.609 123.015 903.739 Q123.015 910.845 124.82 914.41 Q126.649 917.952 130.26 917.952 Q133.895 917.952 135.7 914.41 Q137.529 910.845 137.529 903.739 Q137.529 896.609 135.7 893.067 Q133.895 889.503 130.26 889.503 M130.26 885.799 Q136.07 885.799 139.126 890.405 Q142.205 894.989 142.205 903.739 Q142.205 912.465 139.126 917.072 Q136.07 921.655 130.26 921.655 Q124.45 921.655 121.371 917.072 Q118.316 912.465 118.316 903.739 Q118.316 894.989 121.371 890.405 Q124.45 885.799 130.26 885.799 Z" fill="#000000" fill-rule="evenodd" fill-opacity="1" /><path clip-path="url(#clip040)" d="M 0 0 M81.0476 631.344 Q84.404 632.062 86.279 634.33 Q88.1772 636.599 88.1772 639.932 Q88.1772 645.048 84.6587 647.848 Q81.1402 650.649 74.6587 650.649 Q72.4828 650.649 70.168 650.21 Q67.8764 649.793 65.4227 648.936 L65.4227 644.423 Q67.3671 645.557 69.6819 646.136 Q71.9967 646.714 74.5198 646.714 Q78.918 646.714 81.2096 644.978 Q83.5244 643.242 83.5244 639.932 Q83.5244 636.876 81.3717 635.163 Q79.242 633.427 75.4226 633.427 L71.3949 633.427 L71.3949 629.585 L75.6078 629.585 Q79.0569 629.585 80.8855 628.219 Q82.7142 626.83 82.7142 624.237 Q82.7142 621.575 80.8161 620.163 Q78.9411 618.728 75.4226 618.728 Q73.5013 618.728 71.3023 619.145 Q69.1032 619.562 66.4643 620.441 L66.4643 616.275 Q69.1264 615.534 71.4412 615.163 Q73.7791 614.793 75.8393 614.793 Q81.1633 614.793 84.2652 617.224 Q87.367 619.631 87.367 623.751 Q87.367 626.622 85.7235 628.612 Q84.08 630.58 81.0476 631.344 Z" fill="#000000" fill-rule="evenodd" fill-opacity="1" /><path clip-path="url(#clip040)" d="M 0 0 M103.247 618.497 Q99.6354 618.497 97.8068 622.062 Q96.0012 625.603 96.0012 632.733 Q96.0012 639.839 97.8068 643.404 Q99.6354 646.946 103.247 646.946 Q106.881 646.946 108.686 643.404 Q110.515 639.839 110.515 632.733 Q110.515 625.603 108.686 622.062 Q106.881 618.497 103.247 618.497 M103.247 614.793 Q109.057 614.793 112.112 619.4 Q115.191 623.983 115.191 632.733 Q115.191 641.46 112.112 646.066 Q109.057 650.649 103.247 650.649 Q97.4364 650.649 94.3577 646.066 Q91.3022 641.46 91.3022 632.733 Q91.3022 623.983 94.3577 619.4 Q97.4364 614.793 103.247 614.793 Z" fill="#000000" fill-rule="evenodd" fill-opacity="1" /><path clip-path="url(#clip040)" d="M 0 0 M130.26 618.497 Q126.649 618.497 124.82 622.062 Q123.015 625.603 123.015 632.733 Q123.015 639.839 124.82 643.404 Q126.649 646.946 130.26 646.946 Q133.895 646.946 135.7 643.404 Q137.529 639.839 137.529 632.733 Q137.529 625.603 135.7 622.062 Q133.895 618.497 130.26 618.497 M130.26 614.793 Q136.07 614.793 139.126 619.4 Q142.205 623.983 142.205 632.733 Q142.205 641.46 139.126 646.066 Q136.07 650.649 130.26 650.649 Q124.45 650.649 121.371 646.066 Q118.316 641.46 118.316 632.733 Q118.316 623.983 121.371 619.4 Q124.45 614.793 130.26 614.793 Z" fill="#000000" fill-rule="evenodd" fill-opacity="1" /><path clip-path="url(#clip040)" d="M 0 0 M78.5939 348.486 L66.7884 366.935 L78.5939 366.935 L78.5939 348.486 M77.367 344.412 L83.2466 344.412 L83.2466 366.935 L88.1772 366.935 L88.1772 370.824 L83.2466 370.824 L83.2466 378.972 L78.5939 378.972 L78.5939 370.824 L62.9921 370.824 L62.9921 366.31 L77.367 344.412 Z" fill="#000000" fill-rule="evenodd" fill-opacity="1" /><path clip-path="url(#clip040)" d="M 0 0 M103.247 347.491 Q99.6354 347.491 97.8068 351.056 Q96.0012 354.597 96.0012 361.727 Q96.0012 368.833 97.8068 372.398 Q99.6354 375.94 103.247 375.94 Q106.881 375.94 108.686 372.398 Q110.515 368.833 110.515 361.727 Q110.515 354.597 108.686 351.056 Q106.881 347.491 103.247 347.491 M103.247 343.787 Q109.057 343.787 112.112 348.394 Q115.191 352.977 115.191 361.727 Q115.191 370.454 112.112 375.06 Q109.057 379.643 103.247 379.643 Q97.4364 379.643 94.3577 375.06 Q91.3022 370.454 91.3022 361.727 Q91.3022 352.977 94.3577 348.394 Q97.4364 343.787 103.247 343.787 Z" fill="#000000" fill-rule="evenodd" fill-opacity="1" /><path clip-path="url(#clip040)" d="M 0 0 M130.26 347.491 Q126.649 347.491 124.82 351.056 Q123.015 354.597 123.015 361.727 Q123.015 368.833 124.82 372.398 Q126.649 375.94 130.26 375.94 Q133.895 375.94 135.7 372.398 Q137.529 368.833 137.529 361.727 Q137.529 354.597 135.7 351.056 Q133.895 347.491 130.26 347.491 M130.26 343.787 Q136.07 343.787 139.126 348.394 Q142.205 352.977 142.205 361.727 Q142.205 370.454 139.126 375.06 Q136.07 379.643 130.26 379.643 Q124.45 379.643 121.371 375.06 Q118.316 370.454 118.316 361.727 Q118.316 352.977 121.371 348.394 Q124.45 343.787 130.26 343.787 Z" fill="#000000" fill-rule="evenodd" fill-opacity="1" /><path clip-path="url(#clip040)" d="M 0 0 M67.2745 73.4063 L85.6309 73.4063 L85.6309 77.3415 L71.5569 77.3415 L71.5569 85.8137 Q72.5754 85.4665 73.5939 85.3044 Q74.6124 85.1192 75.6309 85.1192 Q81.418 85.1192 84.7976 88.2905 Q88.1772 91.4618 88.1772 96.8784 Q88.1772 102.457 84.705 105.559 Q81.2328 108.638 74.9134 108.638 Q72.7374 108.638 70.4689 108.267 Q68.2236 107.897 65.8162 107.156 L65.8162 102.457 Q67.8995 103.591 70.1217 104.147 Q72.3439 104.702 74.8208 104.702 Q78.8254 104.702 81.1633 102.596 Q83.5013 100.49 83.5013 96.8784 Q83.5013 93.2673 81.1633 91.1609 Q78.8254 89.0544 74.8208 89.0544 Q72.9458 89.0544 71.0708 89.4711 Q69.2189 89.8877 67.2745 90.7674 L67.2745 73.4063 Z" fill="#000000" fill-rule="evenodd" fill-opacity="1" /><path clip-path="url(#clip040)" d="M 0 0 M103.247 76.485 Q99.6354 76.485 97.8068 80.0498 Q96.0012 83.5915 96.0012 90.7211 Q96.0012 97.8275 97.8068 101.392 Q99.6354 104.934 103.247 104.934 Q106.881 104.934 108.686 101.392 Q110.515 97.8275 110.515 90.7211 Q110.515 83.5915 108.686 80.0498 Q106.881 76.485 103.247 76.485 M103.247 72.7813 Q109.057 72.7813 112.112 77.3878 Q115.191 81.9711 115.191 90.7211 Q115.191 99.4479 112.112 104.054 Q109.057 108.638 103.247 108.638 Q97.4364 108.638 94.3577 104.054 Q91.3022 99.4479 91.3022 90.7211 Q91.3022 81.9711 94.3577 77.3878 Q97.4364 72.7813 103.247 72.7813 Z" fill="#000000" fill-rule="evenodd" fill-opacity="1" /><path clip-path="url(#clip040)" d="M 0 0 M130.26 76.485 Q126.649 76.485 124.82 80.0498 Q123.015 83.5915 123.015 90.7211 Q123.015 97.8275 124.82 101.392 Q126.649 104.934 130.26 104.934 Q133.895 104.934 135.7 101.392 Q137.529 97.8275 137.529 90.7211 Q137.529 83.5915 135.7 80.0498 Q133.895 76.485 130.26 76.485 M130.26 72.7813 Q136.07 72.7813 139.126 77.3878 Q142.205 81.9711 142.205 90.7211 Q142.205 99.4479 139.126 104.054 Q136.07 108.638 130.26 108.638 Q124.45 108.638 121.371 104.054 Q118.316 99.4479 118.316 90.7211 Q118.316 81.9711 121.371 77.3878 Q124.45 72.7813 130.26 72.7813 Z" fill="#000000" fill-rule="evenodd" fill-opacity="1" /><path clip-path="url(#clip042)" d="
M286.469 93.3964 L286.469 1445.72 L696.158 1445.72 L696.158 93.3964 L286.469 93.3964 L286.469 93.3964  Z
  " fill="#009af9" fill-rule="evenodd" fill-opacity="1"/>
<polyline clip-path="url(#clip042)" style="stroke:#000000; stroke-width:4; stroke-opacity:1; fill:none" points="
  286.469,93.3964 286.469,1445.72 696.158,1445.72 696.158,93.3964 286.469,93.3964 
  "/>
<path clip-path="url(#clip042)" d="
M798.58 1445.72 L798.58 1445.72 L1208.27 1445.72 L1208.27 1445.72 L798.58 1445.72 L798.58 1445.72  Z
  " fill="#009af9" fill-rule="evenodd" fill-opacity="1"/>
<polyline clip-path="url(#clip042)" style="stroke:#000000; stroke-width:4; stroke-opacity:1; fill:none" points="
  798.58,1445.72 798.58,1445.72 1208.27,1445.72 798.58,1445.72 
  "/>
<path clip-path="url(#clip042)" d="
M1310.69 1445.72 L1310.69 1445.72 L1720.38 1445.72 L1720.38 1445.72 L1310.69 1445.72 L1310.69 1445.72  Z
  " fill="#009af9" fill-rule="evenodd" fill-opacity="1"/>
<polyline clip-path="url(#clip042)" style="stroke:#000000; stroke-width:4; stroke-opacity:1; fill:none" points="
  1310.69,1445.72 1310.69,1445.72 1720.38,1445.72 1310.69,1445.72 
  "/>
<path clip-path="url(#clip042)" d="
M1822.8 87.9763 L1822.8 1445.72 L2232.49 1445.72 L2232.49 87.9763 L1822.8 87.9763 L1822.8 87.9763  Z
  " fill="#009af9" fill-rule="evenodd" fill-opacity="1"/>
<polyline clip-path="url(#clip042)" style="stroke:#000000; stroke-width:4; stroke-opacity:1; fill:none" points="
  1822.8,87.9763 1822.8,1445.72 2232.49,1445.72 2232.49,87.9763 1822.8,87.9763 
  "/>
</svg>
