<!DOCTYPE svg PUBLIC "-//W3C//DTD SVG 20010904//EN" "http://www.w3.org/TR/2001/REC-SVG-20010904/DTD/svg10.dtd">
<svg version="1.0" xmlns="http://www.w3.org/2000/svg" width="708px" height="708px" viewBox="0 0 7080 7080" preserveAspectRatio="xMidYMid meet">
<g id="layer101" fill="#1c0305" stroke="none">
<path d="M0 3540 l0 -3540 3540 0 3540 0 0 3540 0 3540 -3540 0 -3540 0 0 -3540z"/>
</g>
<g id="layer102" fill="#222355" stroke="none">
<path d="M0 5712 l0 -1367 2173 -2173 2172 -2172 1368 0 1367 0 0 3540 0 3540 -3540 0 -3540 0 0 -1368z m2885 -3052 c3 -5 4 -10 1 -10 -3 0 -8 5 -11 10 -3 6 -4 10 -1 10 3 0 8 -4 11 -10z"/>
</g>
<g id="layer103" fill="#88001b" stroke="none">
<path d="M0 5712 l0 -1367 2173 -2173 2172 -2172 1368 0 1367 0 0 3540 0 3540 -3540 0 -3540 0 0 -1368z m3537 -722 c187 -26 342 -107 506 -269 73 -71 184 -211 244 -307 21 -33 141 -278 148 -301 4 -14 46 -48 108 -89 197 -128 340 -257 447 -399 84 -113 129 -195 171 -310 32 -86 33 -96 33 -240 1 -131 -2 -157 -21 -209 -63 -166 -191 -304 -373 -404 -59 -33 -132 -60 -250 -96 l-75 -23 -55 -100 c-88 -161 -183 -270 -300 -345 -287 -183 -626 -121 -923 171 -74 72 -214 247 -241 301 -4 8 -37 74 -74 145 l-68 130 -116 80 c-202 139 -315 242 -418 380 -84 113 -129 195 -171 310 -32 86 -33 96 -33 240 -1 131 2 157 21 209 63 166 190 304 373 404 65 36 179 77 187 68 10 -10 -7 -21 -62 -41 -155 -57 -317 -181 -399 -303 -82 -124 -107 -214 -102 -362 10 -288 235 -616 594 -864 94 -65 107 -61 75 27 -46 120 -84 271 -114 447 -20 116 -23 172 -23 395 -1 252 12 397 44 510 4 17 11 44 15 60 7 28 8 29 15 8 5 -13 3 -44 -5 -80 -65 -278 -66 -693 -2 -991 12 -57 27 -104 32 -105 6 -1 13 33 17 75 10 112 43 238 91 353 52 121 154 282 169 267 7 -7 -2 -29 -30 -70 -48 -71 -133 -243 -161 -328 -28 -85 -41 -174 -41 -286 0 -97 14 -195 31 -212 5 -6 9 -41 9 -79 0 -76 17 -117 57 -138 16 -8 21 -18 18 -30 -14 -44 167 -327 295 -462 187 -197 365 -292 570 -304 230 -13 431 105 597 352 43 64 87 145 78 145 -3 0 4 9 15 20 11 11 20 30 20 43 0 13 4 27 8 33 18 20 64 171 86 284 31 160 39 251 38 450 -1 210 -10 308 -27 301 -6 -2 -20 -40 -32 -85 -11 -44 -39 -122 -61 -173 -35 -80 -66 -132 -178 -297 -31 -46 -61 -70 -69 -56 -4 6 13 36 37 67 84 110 110 149 163 258 88 179 115 283 115 441 0 87 -33 238 -70 320 -11 23 -20 53 -20 64 0 53 -31 80 -175 150 -194 95 -231 104 -380 97 -101 -5 -137 -11 -229 -41 -121 -40 -252 -106 -338 -172 -44 -34 -59 -40 -67 -30 -19 23 178 145 329 204 82 32 207 62 261 62 51 0 67 11 46 29 -26 21 -254 69 -452 96 -133 17 -443 13 -549 -9 -75 -15 -96 -14 -96 3 0 18 230 43 400 43 279 0 520 -43 849 -152 170 -56 223 -80 304 -134 53 -36 49 -5 -16 124 -82 161 -171 291 -277 403 -187 197 -365 292 -570 304 -230 13 -431 -105 -597 -352 -55 -81 -116 -204 -109 -221 4 -10 0 -11 -18 -3 l-23 11 62 118 c159 301 369 459 637 479 9 0 52 -4 95 -9z m-803 -630 l25 -9 -16 -46 c-13 -34 -19 -41 -26 -30 -4 9 -5 25 -2 36 5 15 4 19 -4 15 -7 -5 -11 2 -11 18 0 29 0 29 34 16z m402 -502 c-70 -70 -101 -95 -107 -86 -5 8 13 34 54 77 101 106 129 129 141 118 8 -7 -19 -40 -88 -109z m3014 -493 c13 -14 21 -25 18 -25 -2 0 -15 11 -28 25 -13 14 -21 25 -18 25 2 0 15 -11 28 -25z m-1950 -565 c0 -11 -43 -54 -115 -116 -44 -37 -58 -45 -68 -35 -9 9 -2 20 33 49 25 20 65 56 90 79 41 38 60 45 60 23z m-1315 -140 c3 -5 4 -10 1 -10 -3 0 -8 5 -11 10 -3 6 -4 10 -1 10 3 0 8 -4 11 -10z m1082 -60 c-67 -53 -243 -133 -360 -165 -67 -18 -86 -29 -69 -39 13 -8 168 -35 287 -51 121 -16 467 -14 487 2 10 8 19 8 37 -2 23 -12 23 -13 5 -18 -49 -14 -115 -18 -281 -19 -194 0 -379 22 -567 68 -54 13 -117 24 -140 24 -65 1 -194 27 -255 51 -69 28 -147 77 -184 117 l-28 29 53 -5 c29 -2 58 -8 63 -13 18 -14 175 -79 280 -115 92 -33 106 -35 175 -29 132 12 406 119 474 186 15 13 23 16 33 8 10 -9 8 -15 -10 -29z"/>
<path d="M0 2155 l0 -2155 2157 0 2158 0 -2155 2155 c-1185 1185 -2156 2155 -2157 2155 -2 0 -3 -970 -3 -2155z"/>
</g>
<g id="layer104" fill="#1c227a" stroke="none">
<path d="M0 5712 l0 -1367 1720 -1720 c1354 -1353 1722 -1717 1730 -1705 8 12 17 7 54 -29 l45 -44 983 974 c541 536 1101 1091 1246 1234 l263 259 24 -24 24 -25 -1245 -1234 -1246 -1234 43 -43 c24 -24 38 -44 31 -44 -7 0 -12 -6 -12 -12 0 -7 154 -167 342 -355 l343 -343 1367 0 1368 0 0 3540 0 3540 -3540 0 -3540 0 0 -1368z m3537 -722 c187 -26 342 -107 506 -269 73 -71 184 -211 244 -307 21 -33 141 -278 148 -301 4 -14 46 -48 108 -89 197 -128 340 -257 447 -399 84 -113 129 -195 171 -310 32 -86 33 -96 33 -240 1 -131 -2 -157 -21 -209 -63 -166 -191 -304 -373 -404 -59 -33 -132 -60 -250 -96 l-75 -23 -55 -100 c-88 -161 -183 -270 -300 -345 -287 -183 -626 -121 -923 171 -74 72 -214 247 -241 301 -4 8 -37 74 -74 145 l-68 130 -116 80 c-202 139 -315 242 -418 380 -84 113 -129 195 -171 310 -32 86 -33 96 -33 240 -1 131 2 157 21 209 78 207 254 367 511 465 46 18 53 18 50 5 -2 -9 -28 -25 -58 -37 -161 -60 -322 -181 -404 -305 -82 -124 -107 -214 -102 -362 10 -288 235 -616 594 -864 94 -65 107 -61 75 27 -46 120 -84 271 -114 447 -20 116 -23 172 -23 395 -1 252 12 397 44 510 4 17 11 43 15 59 4 20 9 26 16 19 7 -7 4 -42 -10 -109 -11 -55 -25 -137 -32 -184 -16 -111 -16 -424 0 -570 14 -136 52 -320 66 -323 6 -1 13 33 17 75 16 180 89 385 192 541 52 80 76 104 76 76 0 -6 -18 -37 -39 -69 -48 -69 -132 -242 -160 -326 -28 -85 -41 -174 -41 -286 0 -97 14 -195 31 -212 5 -6 9 -41 9 -79 0 -76 17 -117 57 -138 16 -8 21 -18 18 -30 -14 -44 167 -327 295 -462 187 -197 365 -292 570 -304 230 -13 431 105 597 352 43 64 87 145 78 145 -3 0 4 9 15 20 11 11 20 30 20 43 0 13 4 27 8 33 18 20 64 171 86 284 31 160 39 251 38 450 -1 210 -10 308 -27 301 -6 -2 -20 -40 -32 -85 -30 -115 -92 -251 -157 -348 -31 -46 -64 -94 -73 -108 -24 -36 -65 -80 -75 -80 -19 0 -5 30 40 86 79 100 107 145 160 254 85 176 112 280 112 436 0 87 -33 238 -70 320 -11 23 -20 53 -20 64 0 53 -31 80 -175 150 -194 95 -231 104 -380 97 -101 -5 -137 -11 -229 -41 -122 -40 -252 -106 -339 -172 -52 -40 -77 -48 -77 -25 0 12 155 114 225 148 134 66 290 113 376 113 51 0 67 11 46 29 -26 21 -254 69 -452 96 -133 17 -443 13 -549 -9 -75 -15 -96 -14 -96 3 0 18 230 43 400 43 279 0 520 -43 849 -152 170 -56 223 -80 304 -134 53 -36 49 -5 -16 124 -82 161 -171 291 -277 403 -187 197 -365 292 -570 304 -230 13 -431 -105 -597 -352 -55 -81 -116 -204 -109 -221 4 -10 0 -11 -18 -3 l-23 11 62 118 c159 301 369 459 637 479 9 0 52 -4 95 -9z m-790 -632 c7 -9 4 -29 -7 -62 -16 -44 -18 -46 -24 -23 -3 14 -3 33 1 43 4 11 3 15 -5 10 -14 -8 -26 10 -18 29 7 18 40 20 53 3z m4206 -197 c14 -29 14 -30 -34 -77 -26 -26 -45 -52 -42 -58 3 -6 2 -8 -2 -3 -13 12 -124 -103 -118 -122 4 -13 3 -13 -5 -2 -8 11 -73 -48 -299 -272 l-290 -287 -24 26 -23 25 347 345 c192 192 344 351 340 356 -3 7 -1 8 6 4 7 -5 33 12 66 43 30 28 56 51 59 51 2 0 11 -13 19 -29z m-3815 -301 c-54 -54 -102 -99 -106 -100 -25 -1 6 43 87 125 69 70 97 92 106 85 10 -8 -12 -35 -87 -110z m1064 -1052 c5 -13 -28 -47 -119 -125 -37 -32 -58 -43 -70 -38 -15 5 -10 14 32 48 28 23 70 61 95 84 49 46 56 50 62 31z m-1317 -148 c3 -5 4 -10 1 -10 -3 0 -8 5 -11 10 -3 6 -4 10 -1 10 3 0 8 -4 11 -10z m1097 -53 c-11 -7 -50 -29 -86 -51 -84 -48 -201 -97 -289 -121 -67 -18 -86 -29 -69 -39 13 -8 168 -35 287 -51 117 -15 466 -14 487 2 9 7 22 6 43 -3 17 -7 27 -13 24 -14 -4 0 -31 -5 -60 -10 -30 -6 -137 -11 -239 -12 -201 0 -382 21 -574 68 -54 13 -117 24 -140 24 -65 1 -194 27 -255 51 -69 28 -147 77 -184 117 l-28 29 53 -5 c29 -2 58 -8 63 -13 18 -14 175 -79 280 -115 92 -33 106 -35 175 -29 132 12 406 119 474 185 15 15 24 17 39 8 19 -10 19 -10 -1 -21z"/>
<path d="M0 2157 l0 -2157 1358 0 1357 0 93 93 c50 51 92 97 92 103 0 5 19 29 43 52 l43 42 24 -25 24 -25 -44 -45 c-24 -24 -46 -43 -50 -42 -11 3 -150 -129 -150 -142 0 -8 200 -11 762 -11 l763 0 -338 338 c-267 266 -339 334 -347 322 -8 -12 -17 -7 -55 30 l-45 44 -178 -177 -178 -178 -24 26 -24 26 177 177 177 177 -42 42 c-32 33 -39 45 -30 55 9 11 -336 361 -1698 1723 l-1710 1710 0 -2158z"/>
</g>
<g id="layer105" fill="#2d2f6e" stroke="none">
<path d="M0 5712 l0 -1367 1720 -1720 c1354 -1353 1722 -1717 1730 -1705 8 12 17 7 54 -29 l45 -44 983 974 c541 536 1101 1091 1246 1234 l263 259 24 -24 24 -25 -1245 -1234 -1246 -1234 43 -43 c24 -24 38 -44 31 -44 -7 0 -12 -6 -12 -12 0 -7 154 -167 342 -355 l343 -343 1367 0 1368 0 0 1192 0 1192 -2347 2348 -2348 2348 -1192 0 -1193 0 0 -1368z m3537 -722 c187 -26 342 -107 506 -269 73 -71 184 -211 244 -307 21 -33 141 -278 148 -301 4 -14 46 -48 108 -89 197 -128 340 -257 447 -399 84 -113 129 -195 171 -310 32 -86 33 -96 33 -240 1 -131 -2 -157 -21 -209 -63 -166 -191 -304 -373 -404 -59 -33 -132 -60 -250 -96 l-75 -23 -55 -100 c-88 -161 -183 -270 -300 -345 -287 -183 -626 -121 -923 171 -74 72 -214 247 -241 301 -4 8 -37 74 -74 145 l-68 130 -116 80 c-202 139 -315 242 -418 380 -84 113 -129 195 -171 310 -32 86 -33 96 -33 240 -1 131 2 157 21 209 78 207 254 367 511 465 46 18 53 18 50 5 -2 -9 -28 -25 -58 -37 -161 -60 -322 -181 -404 -305 -82 -124 -107 -214 -102 -362 10 -288 235 -616 594 -864 94 -65 107 -61 75 27 -46 120 -84 271 -114 447 -20 116 -23 172 -23 395 -1 252 12 397 44 510 4 17 11 43 15 59 4 20 9 26 16 19 7 -7 4 -42 -10 -109 -11 -55 -25 -137 -32 -184 -16 -111 -16 -424 0 -570 14 -136 52 -320 66 -323 6 -1 13 33 17 75 16 180 89 385 192 541 52 80 76 104 76 76 0 -6 -18 -37 -39 -69 -48 -69 -132 -242 -160 -326 -28 -85 -41 -174 -41 -286 0 -97 14 -195 31 -212 5 -6 9 -41 9 -79 0 -76 17 -117 57 -138 16 -8 21 -18 18 -30 -14 -44 167 -327 295 -462 187 -197 365 -292 570 -304 230 -13 431 105 597 352 43 64 87 145 78 145 -3 0 4 9 15 20 11 11 20 30 20 43 0 13 4 27 8 33 18 20 64 171 86 284 31 160 39 251 38 450 -1 210 -10 308 -27 301 -6 -2 -20 -40 -32 -85 -30 -115 -92 -251 -157 -348 -31 -46 -64 -94 -73 -108 -24 -36 -65 -80 -75 -80 -19 0 -5 30 40 86 79 100 107 145 160 254 85 176 112 280 112 436 0 87 -33 238 -70 320 -11 23 -20 53 -20 64 0 53 -31 80 -175 150 -194 95 -231 104 -380 97 -101 -5 -137 -11 -229 -41 -122 -40 -252 -106 -339 -172 -52 -40 -77 -48 -77 -25 0 12 155 114 225 148 134 66 290 113 376 113 51 0 67 11 46 29 -26 21 -254 69 -452 96 -133 17 -443 13 -549 -9 -75 -15 -96 -14 -96 3 0 18 230 43 400 43 279 0 520 -43 849 -152 170 -56 223 -80 304 -134 53 -36 49 -5 -16 124 -82 161 -171 291 -277 403 -187 197 -365 292 -570 304 -230 13 -431 -105 -597 -352 -55 -81 -116 -204 -109 -221 4 -10 0 -11 -18 -3 l-23 11 62 118 c159 301 369 459 637 479 9 0 52 -4 95 -9z m-790 -632 c7 -9 4 -29 -7 -62 -16 -44 -18 -46 -24 -23 -3 14 -3 33 1 43 4 11 3 15 -5 10 -14 -8 -26 10 -18 29 7 18 40 20 53 3z m391 -498 c-54 -54 -102 -99 -106 -100 -25 -1 6 43 87 125 69 70 97 92 106 85 10 -8 -12 -35 -87 -110z m1064 -1052 c5 -13 -28 -47 -119 -125 -37 -32 -58 -43 -70 -38 -15 5 -10 14 32 48 28 23 70 61 95 84 49 46 56 50 62 31z m-1317 -148 c3 -5 4 -10 1 -10 -3 0 -8 5 -11 10 -3 6 -4 10 -1 10 3 0 8 -4 11 -10z m1097 -53 c-11 -7 -50 -29 -86 -51 -84 -48 -201 -97 -289 -121 -67 -18 -86 -29 -69 -39 13 -8 168 -35 287 -51 117 -15 466 -14 487 2 9 7 22 6 43 -3 17 -7 27 -13 24 -14 -4 0 -31 -5 -60 -10 -30 -6 -137 -11 -239 -12 -201 0 -382 21 -574 68 -54 13 -117 24 -140 24 -65 1 -194 27 -255 51 -69 28 -147 77 -184 117 l-28 29 53 -5 c29 -2 58 -8 63 -13 18 -14 175 -79 280 -115 92 -33 106 -35 175 -29 132 12 406 119 474 185 15 15 24 17 39 8 19 -10 19 -10 -1 -21z"/>
</g>
<g id="layer106" fill="#b8181e" stroke="none">
<path d="M0 5712 l0 -1367 1720 -1720 c1354 -1353 1722 -1717 1730 -1705 8 12 17 7 54 -29 l45 -44 983 974 c541 536 1101 1091 1246 1234 l263 259 24 -24 24 -25 -1245 -1234 -1246 -1234 43 -43 c24 -24 38 -44 31 -44 -7 0 -12 -6 -12 -12 0 -7 154 -167 342 -355 l343 -343 1367 0 1368 0 0 1187 0 1188 -2352 2352 -2353 2353 -1187 0 -1188 0 0 -1368z m3537 -722 c187 -26 342 -107 506 -269 73 -71 184 -211 244 -307 21 -33 141 -278 148 -301 4 -14 46 -48 108 -89 197 -128 340 -257 447 -399 84 -113 129 -195 171 -310 32 -86 33 -96 33 -240 1 -131 -2 -157 -21 -209 -63 -166 -191 -304 -373 -404 -59 -33 -132 -60 -250 -96 l-75 -23 -55 -100 c-88 -161 -183 -270 -300 -345 -287 -183 -626 -121 -923 171 -74 72 -214 247 -241 301 -4 8 -37 74 -74 145 l-68 130 -116 80 c-202 139 -315 242 -418 380 -84 113 -129 195 -171 310 -32 86 -33 96 -33 240 -1 131 2 157 21 209 78 207 254 367 511 465 46 18 53 18 50 5 -2 -9 -28 -25 -58 -37 -161 -60 -322 -181 -404 -305 -82 -124 -107 -214 -102 -362 10 -288 235 -616 594 -864 94 -65 107 -61 75 27 -46 120 -84 271 -114 447 -20 116 -23 172 -23 395 -1 252 12 397 44 510 4 17 11 43 15 59 4 20 9 26 16 19 7 -7 4 -42 -10 -109 -11 -55 -25 -137 -32 -184 -16 -111 -16 -424 0 -570 14 -136 52 -320 66 -323 6 -1 13 33 17 75 16 180 89 385 192 541 52 80 76 104 76 76 0 -6 -18 -37 -39 -69 -48 -69 -132 -242 -160 -326 -28 -85 -41 -174 -41 -286 0 -97 14 -195 31 -212 5 -6 9 -41 9 -79 0 -76 17 -117 57 -138 16 -8 21 -18 18 -30 -14 -44 167 -327 295 -462 187 -197 365 -292 570 -304 230 -13 431 105 597 352 43 64 87 145 78 145 -3 0 4 9 15 20 11 11 20 30 20 43 0 13 4 27 8 33 18 20 64 171 86 284 31 160 39 251 38 450 -1 210 -10 308 -27 301 -6 -2 -20 -40 -32 -85 -30 -115 -92 -251 -157 -348 -31 -46 -64 -94 -73 -108 -24 -36 -65 -80 -75 -80 -19 0 -5 30 40 86 79 100 107 145 160 254 85 176 112 280 112 436 0 87 -33 238 -70 320 -11 23 -20 53 -20 64 0 53 -31 80 -175 150 -194 95 -231 104 -380 97 -101 -5 -137 -11 -229 -41 -122 -40 -252 -106 -339 -172 -52 -40 -77 -48 -77 -25 0 12 155 114 225 148 134 66 290 113 376 113 51 0 67 11 46 29 -26 21 -254 69 -452 96 -133 17 -443 13 -549 -9 -75 -15 -96 -14 -96 3 0 18 230 43 400 43 279 0 520 -43 849 -152 170 -56 223 -80 304 -134 53 -36 49 -5 -16 124 -82 161 -171 291 -277 403 -187 197 -365 292 -570 304 -230 13 -431 -105 -597 -352 -55 -81 -116 -204 -109 -221 4 -10 0 -11 -18 -3 l-23 11 62 118 c159 301 369 459 637 479 9 0 52 -4 95 -9z m-790 -632 c7 -9 4 -29 -7 -62 l-18 -49 -7 34 c-4 19 -12 40 -17 46 -6 7 -8 20 -4 28 7 18 40 20 53 3z m391 -498 c-54 -54 -102 -99 -106 -100 -25 -1 6 43 87 125 69 70 97 92 106 85 10 -8 -12 -35 -87 -110z m1064 -1052 c5 -13 -28 -47 -119 -125 -37 -32 -58 -43 -70 -38 -15 5 -10 14 32 48 28 23 70 61 95 84 49 46 56 50 62 31z m-1317 -148 c3 -5 4 -10 1 -10 -3 0 -8 5 -11 10 -3 6 -4 10 -1 10 3 0 8 -4 11 -10z m1097 -53 c-11 -7 -50 -29 -86 -51 -84 -48 -201 -97 -289 -121 -67 -18 -86 -29 -69 -39 13 -8 168 -35 287 -51 117 -15 466 -14 487 2 9 7 22 6 43 -3 17 -7 27 -13 24 -14 -4 0 -31 -5 -60 -10 -30 -6 -137 -11 -239 -12 -201 0 -382 21 -574 68 -54 13 -117 24 -140 24 -65 1 -194 27 -255 51 -69 28 -147 77 -184 117 l-28 29 53 -5 c29 -2 58 -8 63 -13 18 -14 175 -79 280 -115 92 -33 106 -35 175 -29 132 12 406 119 474 185 15 15 24 17 39 8 19 -10 19 -10 -1 -21z"/>
<path d="M2960 6544 l535 -535 222 226 c123 125 223 234 223 241 0 23 14 16 55 -26 22 -22 33 -40 25 -40 -16 0 -460 -439 -460 -455 0 -5 575 -585 1278 -1287 l1277 -1278 348 346 c192 192 344 351 340 356 -3 7 -1 8 6 4 7 -5 33 12 66 43 30 28 56 51 59 51 2 0 11 -13 19 -29 14 -29 14 -30 -34 -77 -26 -26 -45 -52 -42 -58 3 -6 2 -8 -2 -3 -13 12 -124 -103 -118 -122 4 -13 3 -13 -5 -2 -8 11 -73 -48 -299 -272 l-288 -286 458 -458 457 -458 0 2328 0 2327 -1205 0 -1204 0 -259 -259 -259 -260 -27 28 -27 28 227 231 226 232 -1063 0 -1064 0 535 -536z"/>
<path d="M0 3911 l0 -405 255 -249 c141 -137 255 -253 253 -257 -2 -5 -36 -43 -76 -85 l-72 -76 -178 170 -177 171 -3 -87 -3 -87 131 -131 c71 -71 130 -135 130 -140 1 -18 39 -56 52 -53 8 2 592 -556 1298 -1239 l1285 -1243 42 42 c24 23 43 46 43 51 0 12 75 -62 -1320 1288 -668 647 -1221 1183 -1229 1193 -13 16 -7 25 62 94 l77 76 142 -140 c79 -77 602 -592 1163 -1144 561 -553 1072 -1055 1135 -1117 l116 -113 177 178 177 177 -42 42 c-32 33 -39 45 -30 55 9 11 -336 361 -1698 1723 l-1710 1710 0 -404z"/>
<path d="M3350 555 l-175 -175 183 -183 c100 -101 180 -186 176 -190 -4 -4 170 -7 387 -7 l394 0 -338 338 c-267 266 -339 334 -347 322 -8 -12 -17 -7 -52 28 -24 23 -46 42 -48 42 -3 0 -84 -79 -180 -175z"/>
</g>
<g id="layer107" fill="#c81a21" stroke="none">
<path d="M0 5717 l0 -1362 1724 -1724 c1076 -1076 1725 -1718 1729 -1710 3 10 18 1 50 -30 l46 -44 983 974 c541 536 1101 1091 1246 1234 l263 259 24 -24 24 -25 -1245 -1234 -1246 -1234 42 -42 c29 -29 38 -44 28 -48 -8 -3 119 -137 337 -356 l350 -351 1362 0 1363 0 0 1187 0 1188 -2352 2352 -2353 2353 -1187 0 -1188 0 0 -1363z m3537 -727 c187 -26 342 -107 506 -269 73 -71 184 -211 244 -307 21 -33 141 -278 148 -301 4 -14 46 -48 108 -89 197 -128 340 -257 447 -399 84 -113 129 -195 171 -310 32 -86 33 -96 33 -240 1 -131 -2 -157 -21 -209 -63 -166 -191 -304 -373 -404 -59 -33 -132 -60 -250 -96 l-75 -23 -55 -100 c-88 -161 -183 -270 -300 -345 -287 -183 -626 -121 -923 171 -74 72 -214 247 -241 301 -4 8 -37 74 -74 145 l-68 130 -116 80 c-202 139 -315 242 -418 380 -84 113 -129 195 -171 310 -32 86 -33 96 -33 240 -1 131 2 157 21 209 78 207 254 367 511 465 46 18 53 18 50 5 -2 -9 -28 -25 -58 -37 -161 -60 -322 -181 -404 -305 -82 -124 -107 -214 -102 -362 10 -288 235 -616 594 -864 94 -65 107 -61 75 27 -46 120 -84 271 -114 447 -20 116 -23 172 -23 395 -1 252 12 397 44 510 4 17 11 43 15 59 4 20 9 26 16 19 7 -7 4 -42 -10 -109 -11 -55 -25 -137 -32 -184 -16 -111 -16 -424 0 -570 14 -136 52 -320 66 -323 6 -1 13 33 17 75 16 180 89 385 192 541 52 80 76 104 76 76 0 -6 -18 -37 -39 -69 -48 -69 -132 -242 -160 -326 -28 -85 -41 -174 -41 -286 0 -97 14 -195 31 -212 5 -6 9 -41 9 -79 0 -76 17 -117 57 -138 16 -8 21 -18 18 -30 -14 -44 167 -327 295 -462 187 -197 365 -292 570 -304 230 -13 431 105 597 352 43 64 87 145 78 145 -3 0 4 9 15 20 11 11 20 30 20 43 0 13 4 27 8 33 18 20 64 171 86 284 31 160 39 251 38 450 -1 210 -10 308 -27 301 -6 -2 -20 -40 -32 -85 -30 -115 -92 -251 -157 -348 -31 -46 -64 -94 -73 -108 -24 -36 -65 -80 -75 -80 -19 0 -5 30 40 86 79 100 107 145 160 254 85 176 112 280 112 436 0 87 -33 238 -70 320 -11 23 -20 53 -20 64 0 53 -31 80 -175 150 -194 95 -231 104 -380 97 -101 -5 -137 -11 -229 -41 -122 -40 -252 -106 -339 -172 -52 -40 -77 -48 -77 -25 0 12 155 114 225 148 134 66 290 113 376 113 51 0 67 11 46 29 -26 21 -254 69 -452 96 -133 17 -443 13 -549 -9 -75 -15 -96 -14 -96 3 0 18 230 43 400 43 279 0 520 -43 849 -152 170 -56 223 -80 304 -134 53 -36 49 -5 -16 124 -82 161 -171 291 -277 403 -187 197 -365 292 -570 304 -230 13 -431 -105 -597 -352 -55 -81 -116 -204 -109 -221 4 -10 0 -11 -18 -3 l-23 11 62 118 c159 301 369 459 637 479 9 0 52 -4 95 -9z m-790 -632 c7 -9 4 -29 -7 -62 l-18 -49 -7 34 c-4 19 -12 40 -17 46 -6 7 -8 20 -4 28 7 18 40 20 53 3z m391 -498 c-54 -54 -102 -99 -106 -100 -25 -1 6 43 87 125 69 70 97 92 106 85 10 -8 -12 -35 -87 -110z m107 -430 c3 -5 4 -10 1 -10 -3 0 -8 5 -11 10 -3 6 -4 10 -1 10 3 0 8 -4 11 -10z m957 -622 c5 -13 -28 -47 -119 -125 -37 -32 -58 -43 -70 -38 -15 5 -10 14 32 48 28 23 70 61 95 84 49 46 56 50 62 31z m-1317 -148 c3 -5 4 -10 1 -10 -3 0 -8 5 -11 10 -3 6 -4 10 -1 10 3 0 8 -4 11 -10z m1107 -34 c4 -6 -2 -15 -12 -20 -10 -6 -48 -28 -84 -50 -84 -48 -201 -97 -289 -121 -67 -18 -86 -29 -69 -39 13 -8 168 -35 287 -51 117 -15 466 -14 487 2 9 7 22 6 43 -3 17 -7 27 -13 24 -14 -4 0 -31 -5 -60 -10 -30 -6 -137 -11 -239 -12 -201 0 -382 21 -574 68 -54 13 -117 24 -140 24 -65 1 -194 27 -255 51 -69 28 -147 77 -184 117 l-28 29 53 -5 c29 -2 58 -8 63 -13 18 -14 175 -79 280 -115 92 -33 106 -35 175 -29 132 12 406 119 474 185 20 20 36 22 48 6z"/>
<path d="M2960 6544 l535 -535 222 226 c123 125 223 234 223 241 0 23 14 16 55 -26 22 -22 33 -40 25 -40 -16 0 -460 -439 -460 -455 0 -5 575 -585 1278 -1287 l1277 -1278 348 346 c192 192 344 351 340 356 -3 7 -1 8 6 4 7 -5 33 12 66 43 30 28 56 51 59 51 2 0 11 -13 19 -29 14 -29 14 -30 -34 -77 -26 -26 -45 -52 -42 -58 3 -6 2 -8 -2 -3 -13 12 -124 -103 -118 -122 4 -13 3 -13 -5 -2 -8 11 -73 -48 -299 -272 l-288 -286 457 -458 458 -458 0 2328 0 2327 -1205 0 -1204 0 -259 -259 -259 -260 -27 28 -27 28 227 231 226 232 -1063 0 -1064 0 535 -536z"/>
<path d="M0 3906 l0 -400 255 -249 c141 -137 255 -253 253 -257 -2 -5 -36 -43 -76 -85 l-72 -76 -178 170 -177 171 -3 -87 -3 -87 131 -131 c71 -71 130 -135 130 -140 1 -18 39 -56 52 -53 8 2 592 -556 1298 -1239 l1285 -1243 42 42 c24 23 43 46 43 51 0 12 75 -62 -1320 1288 -668 647 -1221 1183 -1229 1193 -13 16 -7 25 62 94 l77 76 142 -140 c79 -77 602 -592 1163 -1144 561 -553 1072 -1055 1135 -1117 l116 -113 177 178 177 178 -40 39 c-24 23 -38 45 -35 55 3 10 -540 560 -1700 1720 l-1705 1705 0 -399z"/>
<path d="M3350 555 l-175 -175 183 -183 c100 -101 180 -186 176 -190 -4 -4 168 -7 382 -7 l389 0 -335 335 c-220 220 -337 330 -342 322 -5 -8 -21 1 -50 31 -24 23 -46 42 -48 42 -3 0 -84 -79 -180 -175z"/>
</g>
<g id="layer108" fill="#ae2734" stroke="none">
<path d="M3030 4394 c-14 -2 -62 -9 -108 -15 -45 -6 -84 -14 -87 -18 -2 -4 24 -28 58 -53 62 -46 92 -72 261 -224 l90 -82 86 58 c171 116 390 200 521 200 51 0 67 11 46 29 -26 21 -259 70 -452 95 -91 12 -354 18 -415 10z"/>
<path d="M2745 4314 c-8 -20 -15 -48 -15 -63 0 -32 73 -162 179 -320 42 -63 82 -124 90 -136 14 -21 15 -19 80 49 36 39 81 84 99 99 17 16 32 33 32 38 0 12 -141 145 -247 233 -79 65 -182 136 -198 136 -3 0 -12 -16 -20 -36z"/>
<path d="M2655 4322 c-6 -5 -32 -17 -60 -27 -155 -57 -317 -181 -399 -303 -82 -124 -107 -214 -102 -362 10 -288 235 -616 594 -864 94 -65 107 -61 75 27 -46 120 -84 271 -114 447 -31 184 -34 594 -6 765 18 107 41 207 51 223 2 4 -4 26 -14 49 -10 23 -16 44 -12 47 9 9 -3 7 -13 -2z"/>
<path d="M3795 4230 c-148 -22 -390 -134 -503 -234 l-22 -20 77 -81 c43 -44 108 -112 144 -150 82 -87 294 -334 378 -440 35 -44 70 -87 78 -95 27 -31 63 -80 164 -221 l104 -145 40 53 c22 30 57 78 78 106 45 61 137 246 166 333 48 146 54 302 16 449 -14 53 -34 117 -45 141 -11 23 -20 53 -20 64 0 54 -31 80 -175 150 -77 38 -164 75 -194 84 -57 17 -195 20 -286 6z"/>
<path d="M2705 4178 c-8 -24 -34 -163 -46 -248 -16 -111 -16 -424 0 -570 14 -136 52 -320 66 -323 6 -1 13 33 17 75 17 183 89 386 194 544 l63 94 -74 105 c-40 58 -104 157 -141 220 -37 63 -69 115 -71 115 -2 0 -6 -6 -8 -12z"/>
<path d="M3225 3970 c3 -5 8 -10 11 -10 3 0 2 5 -1 10 -3 6 -8 10 -11 10 -3 0 -2 -4 1 -10z"/>
<path d="M3134 3857 c-52 -53 -94 -101 -94 -107 0 -10 132 -189 197 -265 19 -22 90 -107 159 -190 156 -187 432 -481 566 -603 l38 -34 67 55 c38 30 81 69 97 85 l28 30 -33 48 c-69 97 -87 121 -140 190 -203 266 -354 445 -587 694 -96 102 -181 187 -189 188 -8 2 -56 -38 -109 -91z"/>
<path d="M2972 3662 c-51 -76 -133 -244 -161 -328 -28 -85 -41 -174 -41 -286 0 -97 14 -195 31 -213 5 -5 9 -40 9 -78 0 -76 17 -117 57 -138 16 -8 21 -18 18 -30 -14 -44 167 -327 295 -462 187 -197 365 -292 570 -304 143 -8 265 31 394 127 85 62 209 215 265 328 28 54 18 59 -85 43 -41 -7 -154 -13 -252 -13 -192 0 -378 22 -566 68 -54 13 -117 24 -140 24 -65 1 -194 27 -255 51 -69 28 -147 77 -184 117 l-28 29 53 -5 c29 -2 58 -8 63 -13 18 -14 175 -79 280 -115 92 -33 106 -35 175 -29 132 12 401 117 476 186 l21 20 -157 157 c-191 192 -280 290 -552 612 -16 19 -78 98 -137 176 l-107 140 -42 -64z m-87 -1002 c3 -5 4 -10 1 -10 -3 0 -8 5 -11 10 -3 6 -4 10 -1 10 3 0 8 -4 11 -10z"/>
<path d="M4166 2759 c-16 -17 -55 -53 -87 -79 l-59 -49 116 -95 c116 -96 255 -183 274 -171 18 11 11 48 -23 125 -42 96 -165 300 -180 300 -7 -1 -25 -15 -41 -31z"/>
<path d="M3965 2600 c-19 -31 -243 -134 -358 -165 -106 -29 -102 -37 29 -60 186 -34 291 -43 477 -41 200 2 229 9 183 42 -78 56 -158 117 -183 140 -91 85 -133 109 -148 84z"/>
</g>
<g id="layer109" fill="#b5523a" stroke="none">
<path d="M3795 4230 c-148 -22 -389 -134 -502 -233 l-22 -20 147 -156 c151 -159 335 -370 456 -520 38 -46 72 -89 77 -95 21 -24 148 -196 202 -273 32 -46 60 -83 61 -83 4 0 96 119 132 171 41 58 127 236 153 315 48 146 54 302 16 449 -14 53 -34 117 -45 141 -11 23 -20 53 -20 64 0 54 -31 80 -175 150 -77 38 -164 75 -194 84 -57 17 -195 20 -286 6z"/>
<path d="M3134 3857 c-52 -53 -94 -100 -94 -106 0 -10 90 -132 185 -250 232 -288 556 -644 737 -809 l38 -34 67 55 c38 30 81 69 96 85 l28 29 -31 44 c-135 193 -285 386 -445 574 -144 170 -453 499 -472 503 -8 2 -56 -38 -109 -91z"/>
<path d="M2972 3661 c-48 -70 -133 -243 -161 -327 -28 -85 -41 -174 -41 -286 0 -97 14 -195 31 -213 5 -5 9 -40 9 -78 0 -76 17 -117 57 -138 16 -8 21 -18 18 -30 -14 -44 167 -327 295 -462 187 -197 365 -292 570 -304 143 -8 265 31 394 127 85 62 209 215 265 328 28 54 18 59 -85 43 -41 -7 -154 -13 -252 -13 -192 0 -378 22 -566 68 -54 13 -117 24 -140 24 -65 1 -194 27 -255 51 -69 28 -147 77 -184 117 l-28 29 53 -5 c29 -2 58 -8 63 -13 18 -14 175 -79 280 -115 92 -33 106 -35 175 -29 96 9 259 62 369 121 150 80 155 55 -54 266 -173 176 -496 540 -600 679 -133 176 -166 219 -170 219 -2 0 -21 -26 -43 -59z m-87 -1001 c3 -5 4 -10 1 -10 -3 0 -8 5 -11 10 -3 6 -4 10 -1 10 3 0 8 -4 11 -10z"/>
<path d="M4556 3449 c-3 -8 -14 -48 -25 -90 -29 -110 -91 -246 -155 -341 -31 -46 -64 -94 -73 -108 -9 -14 -30 -39 -45 -56 l-29 -31 65 -105 c78 -128 119 -207 141 -276 15 -46 19 -51 29 -35 20 29 57 144 80 243 45 197 63 469 45 680 -9 107 -22 153 -33 119z"/>
</g>
<g id="layer110" fill="#939b3d" stroke="none">
<path d="M0 5737 l0 -1342 1774 -1774 1775 -1775 983 975 c541 536 1101 1091 1246 1234 l263 259 24 -24 24 -25 -1245 -1234 -1246 -1234 398 -398 399 -399 1342 0 1343 0 0 1187 0 1188 -2352 2352 -2353 2353 -1187 0 -1188 0 0 -1343z m3537 -747 c187 -26 342 -107 506 -269 73 -71 184 -211 244 -307 21 -33 141 -278 148 -301 4 -14 46 -48 108 -89 197 -128 340 -257 447 -399 84 -113 129 -195 171 -310 32 -86 33 -96 33 -240 1 -131 -2 -157 -21 -209 -63 -166 -191 -304 -373 -404 -59 -33 -132 -60 -250 -96 l-75 -23 -55 -100 c-88 -161 -183 -270 -300 -345 -287 -183 -626 -121 -923 171 -74 72 -214 247 -241 301 -4 8 -37 74 -74 145 l-68 130 -116 80 c-202 139 -315 242 -418 380 -84 113 -129 195 -171 310 -32 86 -33 96 -33 240 -1 131 2 157 21 209 78 205 257 369 508 464 33 12 51 25 53 38 6 29 19 38 55 39 31 0 35 5 93 116 157 300 368 458 636 478 9 0 52 -4 95 -9z"/>
<path d="M3795 4230 c-78 -12 -232 -67 -325 -117 -96 -51 -195 -123 -191 -138 1 -6 63 -73 136 -150 133 -139 357 -395 466 -532 31 -39 62 -77 68 -85 22 -24 146 -192 204 -275 32 -46 60 -83 61 -83 4 0 96 119 132 171 41 58 127 236 153 315 48 146 54 302 16 449 -14 53 -34 117 -45 141 -11 23 -20 53 -20 64 0 54 -31 80 -175 150 -77 38 -164 75 -194 84 -57 17 -195 20 -286 6z"/>
<path d="M2973 3663 c-49 -72 -134 -244 -162 -329 -28 -85 -41 -174 -41 -286 0 -97 14 -195 31 -213 5 -5 9 -40 9 -78 0 -76 17 -117 57 -138 16 -8 21 -18 18 -30 -14 -44 167 -327 295 -462 187 -197 365 -292 570 -304 143 -8 265 31 394 127 85 62 209 215 265 328 28 54 18 59 -85 43 -41 -7 -154 -13 -252 -13 -192 0 -378 22 -566 68 -54 13 -117 24 -140 24 -65 1 -194 27 -255 51 -69 28 -147 77 -184 117 l-28 29 53 -5 c29 -2 58 -8 63 -13 18 -14 175 -79 280 -115 92 -33 106 -35 175 -29 96 9 259 62 369 121 150 80 155 55 -54 266 -170 173 -514 560 -580 653 -29 41 -128 170 -171 222 l-20 26 -41 -60z m-93 -998 c14 -19 14 -19 -2 -6 -10 7 -18 18 -18 24 0 6 1 8 3 6 1 -2 9 -13 17 -24z"/>
</g>
<g id="layer111" fill="#d8a11f" stroke="none">
<path d="M3795 4230 c-78 -12 -232 -67 -325 -117 -96 -51 -195 -123 -191 -138 1 -6 63 -73 136 -150 133 -139 357 -395 466 -532 31 -39 62 -77 68 -85 22 -24 146 -192 204 -275 32 -46 60 -83 61 -83 4 0 96 119 132 171 41 58 127 236 153 315 48 146 54 302 16 449 -14 53 -34 117 -45 141 -11 23 -20 54 -20 67 0 34 -35 74 -89 102 -126 66 -231 114 -280 129 -57 17 -194 20 -286 6z"/>
<path d="M3134 3857 c-52 -53 -94 -100 -94 -106 0 -10 90 -132 185 -250 232 -288 556 -644 737 -809 l38 -34 67 55 c38 30 81 69 96 85 l28 29 -31 44 c-187 266 -470 618 -626 779 -34 36 -111 117 -169 180 -59 63 -114 117 -122 118 -8 2 -57 -39 -109 -91z"/>
<path d="M2973 3663 c-49 -72 -134 -244 -162 -329 -28 -85 -41 -174 -41 -286 0 -97 14 -195 31 -213 5 -5 9 -40 9 -78 0 -76 17 -117 57 -138 16 -8 21 -18 18 -30 -14 -44 167 -327 295 -462 187 -197 365 -292 570 -304 143 -8 265 31 394 127 85 62 209 215 265 328 28 54 18 59 -85 43 -41 -7 -154 -13 -252 -13 -192 0 -378 22 -566 68 -54 13 -117 24 -140 24 -65 1 -194 27 -255 51 -69 28 -147 77 -184 117 l-28 29 53 -5 c29 -2 58 -8 63 -13 18 -14 175 -79 280 -115 92 -33 106 -35 175 -29 96 9 259 62 369 121 150 80 155 55 -54 266 -170 173 -514 560 -580 653 -29 41 -128 170 -171 222 l-20 26 -41 -60z m-98 -989 c9 -15 12 -23 6 -20 -11 7 -35 46 -28 46 3 0 12 -12 22 -26z"/>
</g>
<g id="layer112" fill="#b2bb2d" stroke="none">
<path d="M0 5737 l0 -1342 1774 -1774 1775 -1775 983 975 c541 536 1101 1091 1246 1234 l263 259 24 -24 24 -25 -1245 -1234 -1246 -1234 398 -398 399 -399 1342 0 1343 0 0 1183 0 1183 -2357 2357 -2357 2357 -1183 0 -1183 0 0 -1343z m3537 -747 c187 -26 342 -107 506 -269 73 -71 184 -211 244 -307 21 -33 141 -278 148 -301 4 -14 46 -48 108 -89 197 -128 340 -257 447 -399 84 -113 129 -195 171 -310 32 -86 33 -96 33 -240 1 -131 -2 -157 -21 -209 -63 -166 -191 -304 -373 -404 -59 -33 -132 -60 -250 -96 l-75 -23 -55 -100 c-88 -161 -183 -270 -300 -345 -287 -183 -626 -121 -923 171 -74 72 -214 247 -241 301 -4 8 -37 74 -74 145 l-68 130 -116 80 c-202 139 -315 242 -418 380 -84 113 -129 195 -171 310 -32 86 -33 96 -33 240 -1 131 2 157 21 209 78 205 257 369 508 464 33 12 51 25 53 38 6 29 19 38 55 39 31 0 35 5 93 116 157 300 368 458 636 478 9 0 52 -4 95 -9z"/>
<path d="M0 3886 l0 -380 255 -249 c141 -137 255 -253 253 -257 -2 -5 -36 -43 -76 -85 l-72 -76 -178 170 -177 171 -3 -87 -3 -87 131 -131 c71 -71 130 -135 130 -140 1 -18 39 -56 52 -53 8 2 592 -556 1298 -1239 l1285 -1243 42 42 c24 23 43 46 43 51 0 12 75 -62 -1320 1288 -668 647 -1221 1183 -1229 1193 -13 16 -7 25 62 94 l77 76 142 -140 c79 -77 602 -592 1163 -1144 561 -553 1072 -1055 1135 -1117 l116 -113 177 178 177 177 -1740 1740 -1740 1740 0 -379z"/>
</g>
<g id="layer113" fill="#e8ab10" stroke="none">
<path d="M3795 4230 c-148 -22 -389 -134 -502 -233 l-22 -20 121 -128 c67 -71 125 -126 130 -123 4 3 8 0 8 -6 0 -7 7 -9 16 -6 13 5 14 4 6 -7 -9 -11 19 -49 130 -178 78 -90 168 -198 201 -239 33 -41 66 -79 73 -83 8 -4 14 -12 14 -17 0 -5 28 -47 63 -92 34 -46 89 -120 121 -165 31 -46 59 -83 60 -83 4 0 96 119 132 171 41 58 127 236 153 315 48 146 54 302 16 449 -14 53 -34 117 -45 141 -11 23 -20 55 -20 70 0 34 -60 90 -106 99 -19 3 -32 10 -28 16 7 11 -155 89 -235 113 -57 17 -194 20 -286 6z m295 -924 c0 -3 -5 -8 -12 -12 -7 -4 -8 -3 -4 4 7 12 16 16 16 8z"/>
<path d="M3134 3857 c-52 -53 -94 -100 -94 -106 0 -14 142 -201 191 -251 21 -22 39 -44 39 -50 0 -32 517 -598 692 -758 l38 -34 67 55 c38 30 81 69 96 85 l28 29 -31 44 c-17 24 -47 67 -68 95 -20 28 -59 81 -86 118 -26 36 -57 71 -67 76 -10 6 -18 14 -16 18 5 16 -267 347 -389 472 -35 36 -111 117 -170 180 -58 63 -113 117 -121 118 -8 2 -57 -39 -109 -91z"/>
<path d="M2973 3663 c-49 -72 -134 -244 -162 -329 -28 -85 -41 -174 -41 -286 0 -97 14 -195 31 -213 5 -5 9 -40 9 -78 0 -76 17 -117 57 -138 16 -8 21 -18 18 -30 -14 -44 167 -327 295 -462 187 -197 365 -292 570 -304 143 -8 265 31 394 127 85 62 209 215 265 328 28 54 18 59 -85 43 -41 -7 -154 -13 -252 -13 -192 0 -378 22 -566 68 -54 13 -117 24 -140 24 -65 1 -194 27 -255 51 -68 28 -147 77 -183 115 l-27 29 60 3 c40 1 58 -1 57 -9 -3 -14 130 -74 276 -125 93 -33 107 -35 176 -29 96 9 259 62 369 121 150 80 156 55 -54 266 -99 101 -260 276 -359 391 -98 114 -181 207 -185 207 -4 0 -15 15 -23 33 -9 17 -48 73 -88 122 -39 50 -81 103 -93 119 l-23 29 -41 -60z m217 -257 c0 -3 -5 -8 -12 -12 -7 -4 -8 -3 -4 4 7 12 16 16 16 8z m-306 -755 c-5 -6 -33 31 -33 44 -1 6 8 -1 19 -15 10 -14 17 -27 14 -29z"/>
</g>
<g id="layer114" fill="#ffffff" stroke="none">
<path d="M0 5737 l0 -1342 473 -473 473 -473 949 958 c522 527 1080 1090 1239 1251 l291 292 -565 565 -565 565 -1147 0 -1148 0 0 -1343z"/>
<path d="M2960 6545 l535 -535 123 123 c68 67 169 171 225 231 l102 109 -36 31 c-19 17 -169 154 -331 304 l-296 272 -429 0 -428 0 535 -535z"/>
<path d="M3630 7056 c14 -12 126 -117 248 -231 l224 -208 50 50 50 50 -194 181 -193 181 -105 1 -105 0 25 -24z"/>
<path d="M4205 6620 l-49 -50 39 -39 c22 -21 378 -353 790 -736 413 -384 777 -723 810 -754 33 -32 260 -243 505 -471 245 -227 462 -429 483 -449 l37 -35 50 49 50 50 -387 360 c-213 198 -486 453 -608 566 -121 113 -524 489 -895 834 -371 345 -698 650 -725 676 l-51 49 -49 -50z"/>
<path d="M3784 6189 c-123 -123 -224 -228 -224 -234 0 -5 575 -585 1277 -1287 l1277 -1277 280 277 c155 152 282 279 284 283 4 8 -158 158 -1658 1534 -366 335 -743 681 -838 768 l-173 160 -225 -224z"/>
<path d="M2259 4635 c-679 -685 -1235 -1249 -1237 -1253 -1 -4 567 -576 1262 -1271 l1265 -1265 983 975 c541 536 1101 1091 1246 1233 144 143 262 264 262 270 0 6 -573 584 -1273 1284 l-1274 1274 -1234 -1247z m1278 355 c187 -26 342 -107 506 -269 73 -71 184 -211 244 -307 21 -33 141 -278 148 -301 4 -14 46 -48 108 -89 197 -128 340 -257 447 -399 84 -113 129 -195 171 -310 32 -86 33 -96 33 -240 1 -131 -2 -157 -21 -209 -63 -166 -191 -304 -373 -404 -59 -33 -132 -60 -250 -96 l-75 -23 -55 -100 c-88 -161 -183 -270 -300 -345 -287 -183 -626 -121 -923 171 -74 72 -214 247 -241 301 -4 8 -37 74 -74 145 l-68 130 -116 80 c-202 139 -315 242 -418 380 -84 113 -129 195 -171 310 -32 86 -33 96 -33 240 -1 131 2 157 21 209 78 205 257 369 508 464 33 12 51 25 53 38 6 29 19 38 55 39 31 0 35 5 93 116 157 300 368 458 636 478 9 0 52 -4 95 -9z"/>
<path d="M3315 4952 c-167 -51 -302 -158 -422 -337 -53 -79 -116 -204 -109 -220 3 -10 28 -8 113 7 77 13 160 19 293 19 287 2 524 -40 859 -151 170 -56 223 -80 304 -134 53 -36 49 -5 -16 124 -82 161 -171 291 -277 403 -135 142 -264 230 -410 278 -93 30 -254 35 -335 11z"/>
<path d="M3030 4394 c-14 -2 -62 -9 -108 -15 -45 -6 -84 -14 -87 -18 -2 -4 24 -28 58 -54 73 -54 115 -90 251 -213 l100 -92 86 58 c171 116 390 200 521 200 51 0 67 11 46 29 -26 21 -259 70 -452 95 -91 12 -354 18 -415 10z"/>
<path d="M2745 4314 c-24 -57 -18 -84 36 -179 49 -86 180 -287 216 -333 l18 -22 98 99 c69 70 96 104 90 113 -39 63 -400 358 -438 358 -3 0 -12 -16 -20 -36z"/>
<path d="M2600 4298 c-163 -62 -322 -183 -404 -306 -82 -124 -107 -214 -102 -362 10 -288 235 -616 594 -864 94 -65 107 -61 75 27 -46 120 -84 271 -114 447 -20 117 -23 170 -23 400 0 271 8 353 50 532 17 68 15 100 -8 130 -12 15 -17 15 -68 -4z"/>
<path d="M3795 4230 c-78 -12 -232 -67 -323 -116 -78 -42 -185 -113 -195 -131 -3 -5 50 -66 117 -136 l122 -129 54 43 c97 77 273 189 375 239 114 55 256 100 321 100 23 0 46 5 49 10 8 12 -152 90 -234 114 -57 17 -194 20 -286 6z"/>
<path d="M2706 4179 c-9 -25 -34 -162 -47 -249 -16 -111 -16 -424 0 -570 14 -136 52 -320 66 -323 6 -1 13 33 17 75 17 183 89 386 194 543 l62 95 -55 76 c-30 42 -93 140 -139 218 -97 161 -92 153 -98 135z"/>
<path d="M4160 4059 c-145 -39 -451 -211 -578 -325 l-43 -39 172 -200 c94 -110 185 -219 202 -242 17 -24 34 -43 38 -43 13 0 190 196 252 278 223 298 282 542 140 581 -54 15 -97 13 -183 -10z"/>
<path d="M4484 4007 c-3 -8 5 -36 17 -63 37 -85 49 -134 81 -334 29 -181 32 -213 32 -455 1 -324 -13 -430 -92 -673 -22 -68 -27 -95 -18 -98 17 -6 204 60 263 93 149 83 240 160 307 261 82 124 107 214 102 362 -10 288 -235 616 -593 863 -45 31 -85 57 -88 57 -3 0 -8 -6 -11 -13z"/>
<path d="M3134 3857 c-52 -53 -94 -100 -94 -106 0 -9 117 -166 179 -240 l29 -35 116 109 c64 60 116 113 116 117 0 13 -221 243 -237 246 -8 2 -56 -38 -109 -91z"/>
<path d="M4446 3918 c-2 -7 -11 -41 -20 -76 -40 -155 -189 -380 -394 -593 l-63 -67 63 -83 c35 -46 90 -121 122 -166 31 -46 59 -83 60 -83 4 0 96 119 132 171 41 58 127 236 153 315 51 155 53 334 4 493 -26 88 -48 121 -57 89z"/>
<path d="M2973 3663 c-49 -72 -134 -244 -162 -329 -41 -123 -54 -317 -30 -437 12 -58 35 -92 43 -66 3 8 10 32 17 54 34 113 138 278 281 448 115 136 114 107 4 247 -37 47 -77 98 -89 114 l-23 29 -41 -60z"/>
<path d="M3382 3564 c-62 -58 -112 -110 -112 -115 0 -11 228 -277 334 -390 l82 -87 39 29 c21 16 76 63 122 105 l83 75 -52 67 c-65 84 -267 323 -322 380 -22 23 -45 42 -51 42 -6 0 -62 -48 -123 -106z"/>
<path d="M4556 3449 c-3 -8 -14 -48 -25 -90 -29 -110 -91 -246 -155 -341 -31 -46 -64 -94 -73 -108 -9 -14 -29 -39 -45 -56 l-28 -30 78 -130 c67 -112 114 -207 136 -278 10 -29 29 -5 50 61 10 32 22 69 27 83 35 104 68 334 73 512 7 214 -17 442 -38 377z"/>
<path d="M3165 3343 c-187 -212 -310 -427 -322 -562 -5 -51 -2 -60 26 -99 50 -68 93 -76 226 -41 134 35 337 141 504 264 l63 46 -59 62 c-32 34 -125 140 -207 235 -81 94 -151 172 -155 172 -4 0 -38 -35 -76 -77z"/>
<path d="M3875 3094 c-38 -35 -91 -81 -117 -101 -27 -21 -48 -40 -48 -43 0 -7 192 -205 247 -254 l43 -38 67 55 c38 30 81 69 96 85 l28 29 -31 44 c-74 106 -210 289 -213 289 -1 -1 -33 -30 -72 -66z"/>
<path d="M3666 2922 c-13 -22 -249 -170 -346 -219 -58 -28 -150 -65 -205 -81 -55 -15 -99 -32 -99 -38 2 -11 146 -74 278 -120 93 -33 107 -35 176 -29 136 13 412 122 476 188 l21 22 -148 143 c-81 79 -150 139 -153 134z"/>
<path d="M4183 2776 c-4 -7 -41 -42 -80 -76 -40 -35 -73 -66 -73 -69 0 -4 48 -47 106 -95 110 -92 255 -183 274 -171 29 18 -19 141 -125 314 -65 107 -85 126 -102 97z"/>
<path d="M3965 2600 c-19 -31 -243 -134 -358 -165 -106 -29 -102 -37 29 -60 186 -34 291 -43 477 -41 200 2 229 9 183 42 -70 50 -162 118 -166 124 -3 4 -33 30 -67 59 -61 50 -86 61 -98 41z"/>
<path d="M2885 2588 c-16 -41 168 -327 295 -461 187 -197 365 -292 570 -304 143 -8 265 31 394 127 85 62 209 215 265 328 28 54 18 59 -85 43 -41 -7 -154 -13 -252 -13 -192 0 -378 22 -566 68 -54 13 -117 24 -140 24 -64 1 -193 27 -255 51 -72 29 -126 63 -178 113 -34 32 -43 36 -48 24z"/>
<path d="M3010 2536 c0 -9 152 -76 172 -76 14 1 4 8 -27 19 -27 10 -70 28 -94 39 -47 23 -51 24 -51 18z"/>
<path d="M0 3885 l0 -380 256 -249 256 -249 186 186 187 187 -443 442 -442 443 0 -380z"/>
<path d="M6918 4083 l-46 -48 102 -94 101 -94 3 94 3 94 -51 48 c-28 26 -55 47 -59 47 -4 0 -27 -21 -53 -47z"/>
<path d="M6447 3621 l-282 -280 458 -458 457 -458 -1 585 0 585 -165 150 c-90 83 -169 152 -174 153 -6 2 -137 -123 -293 -277z"/>
<path d="M760 3124 l-182 -187 128 -127 c227 -223 2185 -2150 2304 -2267 l116 -113 177 178 177 177 -1263 1263 c-694 694 -1265 1262 -1268 1262 -4 0 -89 -84 -189 -186z"/>
<path d="M4846 2034 l-1248 -1237 398 -398 399 -399 1342 0 1343 0 0 1148 0 1147 -488 488 c-268 268 -489 487 -492 487 -3 0 -567 -556 -1254 -1236z"/>
<path d="M0 3095 l0 -90 128 -128 128 -127 47 48 47 48 -113 109 c-61 61 -140 137 -174 170 l-63 59 0 -89z"/>
<path d="M376 2731 l-48 -48 1283 -1242 1284 -1241 42 42 c24 23 43 46 43 51 0 12 114 -99 -1175 1146 -594 574 -1148 1111 -1230 1192 l-150 149 -49 -49z"/>
<path d="M3350 555 l-175 -175 183 -183 c100 -101 180 -186 176 -190 -4 -4 159 -7 362 -7 l369 0 -365 365 c-201 201 -367 365 -370 365 -3 0 -84 -79 -180 -175z"/>
<path d="M2989 194 l-44 -45 70 -67 c39 -37 69 -70 68 -74 -2 -5 45 -8 105 -8 l107 1 -115 110 c-63 60 -122 114 -131 119 -12 7 -26 -1 -60 -36z"/>
</g>


</svg>